<?xml version="1.0" standalone="no"?>
<!DOCTYPE svg PUBLIC "-//W3C//DTD SVG 1.1//EN" "http://www.w3.org/Graphics/SVG/1.1/DTD/svg11.dtd" >
<svg>
<metadata>
Created by FontForge 20090914 at Thu Dec 25 05:11:33 2014
 By www-data
 
</metadata>
<defs>
<font id="CAMBRIA" horiz-adv-x="0" >
  <font-face 
    font-family="CAMBRIA"
    font-weight="400"
    font-stretch="normal"
    units-per-em="1000"
    panose-1="0 0 0 0 0 0 0 0 0 0"
    ascent="800"
    descent="-200"
    x-height="467"
    cap-height="721.001"
    bbox="-2 -249.002 975.023 750"
    underline-thickness="50"
    underline-position="-55"
    unicode-range="U+0020-U+F002"
  />
<missing-glyph 
 />
    <glyph glyph-name=".notdef" 
 />
    <glyph glyph-name="exclam" unicode=" " horiz-adv-x="133" 
 />
    <glyph glyph-name="exclam" unicode="&#xa0;" horiz-adv-x="133" 
 />
    <glyph glyph-name="quotedbl" unicode="!" horiz-adv-x="236" 
d="M199 23c-2 -0.666992 -3.99902 -1.5 -5.99902 -2.5s-4 -1.83301 -6 -2.5c-17.333 -8 -35.333 -13.833 -54 -17.5s-40.334 -5.5 -65.001 -5.5l-31 50l10 2l60 12l38 11l11 4l43 -51v0zM137.001 619l0.000976562 -32.998v-70l-4 -159l-4 -166l-2 -64v-14
c-5.33301 -0.666992 -11 -1.16699 -17 -1.5s-12 -0.5 -18 -0.5c-8.66699 0 -17.334 0.166992 -26.001 0.5s-17 0.833008 -25 1.5v20l2 133v24v24c-1.33301 45.333 -3.33301 91.166 -6 137.499s-6.66699 95.166 -12 146.499v15l112 6v0z" />
    <glyph glyph-name="numbersign" unicode="&#x22;" horiz-adv-x="258" 
d="M39 553l66.001 13.001v-271c-7.33301 -1.33301 -15.833 -2.5 -25.5 -3.5s-19.834 -2.16699 -30.501 -3.5c-2.66699 0 -5.5 -0.166992 -8.5 -0.5s-6.16699 -0.5 -9.5 -0.5v4l2 14c2 22.667 3.83301 46.667 5.5 72s2.5 52.666 2.5 81.999l-2 66v28v0zM168.001 553.001
l66.001 13.001v-271c-7.33301 -1.33301 -15.833 -2.5 -25.5 -3.5s-19.834 -2.16699 -30.501 -3.5c-2.66699 0 -5.5 -0.166992 -8.5 -0.5s-6.16699 -0.5 -9.5 -0.5v4l2 14c3.33301 22.667 5.5 46.667 6.5 72s1.5 52.666 1.5 81.999v66l-2 28v0z" />
    <glyph glyph-name="dollar" unicode="#" horiz-adv-x="506" 
d="M211 318l31 0.00195312h31h22h19l6 30l6 29l14 70l2 20l76 15l-2 -7l-14 -59l-19 -84l-2 -12h14c6 0.666992 11.5 1 16.5 1s10.167 0.333008 15.5 1h3h4c6.66699 0 13.334 0.166992 20.001 0.5s14.334 0.833008 23.001 1.5l-36 -64h-74l-17 -74h7l10 2l57 1h23l-33 -62
h-78l-2 -6c-1.33301 -4.66699 -2.5 -9.33398 -3.5 -14.001s-2.16699 -9.33398 -3.5 -14.001l-2 -12c-0.666992 -4 -1.66699 -8 -3 -12l-6.5 -37l-8.5 -47l-75 -16l5.5 19.5c1.66699 5.66699 3.5 11.167 5.5 16.5c0 1.33301 0.166992 2.83301 0.5 4.5
s0.833008 3.16699 1.5 4.5c3.33301 10.667 6.66602 22.167 9.99902 34.5s7 27.5 11 45.5l4 15l1 18h-21l-21 -2h-32h-31l-8 -35l-6 -31l-13 -75l-75 -15l5.5 19.5c1.66699 5.66699 3.5 11.167 5.5 16.5c0 1.33301 0.166992 2.83301 0.5 4.5s0.833008 3.16699 1.5 4.5
c3.33301 10.667 6.66602 22.167 9.99902 34.5s7 27.5 11 45.5l2 13l4 18l-30 -2h-31h-27l31 63h23h24h23l18 74l-33 -2h-32h-25l31 60h24h23h23l6 30l6 29l12 70l4 20l76 15l-2 -7l-14 -59l-19 -84l-4 -14v0zM197 260.002l-19 -76h33h33h22l19 2l18 74h-22h-11.5h-9.5h-12.5
h-18.5h-32v0z" />
    <glyph glyph-name="percent" unicode="$" horiz-adv-x="758" 
d="M432 684c1.33301 2.66699 2.50684 5.32422 3.50684 7.99121s2.16699 5.33398 3.5 8.00098v0.5c0 0.333008 0.333008 0.833008 1 1.5l6 14.5c2 5 4.33301 9.5 7 13.5h23.5h22.5c2.66699 -0.666992 5.16699 -1 7.5 -1h7.5l-4 -10.5l-4 -10.5
c-1.33301 -2.66699 -2.5 -5.16699 -3.5 -7.5s-2.16699 -4.5 -3.5 -6.5c-1.33301 -4 -2.83301 -8.16699 -4.5 -12.5s-3.16699 -8.83301 -4.5 -13.5c45.333 -21.333 86 -48.166 122 -80.499s61.333 -69.166 76 -110.499c-14.667 0 -29 -0.166992 -43 -0.5
s-28 -0.833008 -42 -1.5h-4h-4c-12.667 -0.666992 -25.334 -1.16699 -38.001 -1.5s-25.667 -0.5 -39 -0.5c-2 4.66699 -4.16699 9.33398 -6.5 14.001s-4.83301 9.33398 -7.5 14.001c-6.66699 11.333 -14 22.5 -22 33.5s-16.333 20.5 -25 28.5
c-10.667 -20.667 -19.167 -43.167 -25.5 -67.5s-9.5 -49.166 -9.5 -74.499v-2.5v-2.5v-3v-3c51.333 -6.66699 102.666 -17.5 153.999 -32.5s102.333 -32.167 153 -51.5c-14 -90.667 -48.167 -163.167 -102.5 -217.5s-112.833 -89.833 -175.5 -106.5
c-9.33301 -2 -18.5 -3.83301 -27.5 -5.5s-18.167 -2.83398 -27.5 -3.50098c0.666992 -3.33301 1.16699 -6.83301 1.5 -10.5s0.5 -7.16699 0.5 -10.5c1.33301 -7.33301 2.33301 -14.833 3 -22.5s1 -15.167 1 -22.5c-5.33301 0.666992 -10.833 1.16699 -16.5 1.5
s-11.5 0.5 -17.5 0.5h-4.5h-4.5c-4.66699 0.666992 -9.33398 1 -14.001 1s-9 0.333008 -13 1c0 4.66699 -0.166992 9.5 -0.5 14.5s-0.5 10.167 -0.5 15.5l-2 15.5c-0.666992 5 -1.66699 9.83301 -3 14.5c-68.667 14.667 -129.834 44.667 -183.501 90
s-88.834 98.333 -105.501 159h63h62h20.5h20.5l4 -11.5c1.33301 -3.66699 3 -7.5 5 -11.5c10.667 -27.333 25 -53.666 43 -78.999s41 -44.666 69 -57.999v6v6v5v6c0 20.667 0.5 40.834 1.5 60.501s1.83301 39.167 2.5 58.5l2 38l2 37c-44.667 16.667 -90.334 29 -137.001 37
s-94.667 15.333 -144 22c-5.33301 0.666992 -11 1.5 -17 2.5s-12 1.83301 -18 2.5c4 100.667 43.667 179.834 119 237.501s162.666 86.5 261.999 86.5h17c6 0 12 -0.333008 18 -1v0zM402.007 282.99l-1.99805 -20l-2 -21c-2 -16 -3.66699 -32.333 -5 -49s-2 -33.667 -2 -51
c0 -10.667 0.5 -21.5 1.5 -32.5s2.16699 -22.167 3.5 -33.5v0h1v0v0c7.33301 0 15 1.66699 23 5s16.333 8.33301 25 15c16 12.667 31.5 29.5 46.5 50.5s26.167 42.833 33.5 65.5c1.33301 4 2.5 7.83301 3.5 11.5s1.83301 7.16699 2.5 10.5
c-12.667 9.33301 -26.334 16.833 -41.001 22.5s-29.334 10.5 -44.001 14.5c-3.33301 0.666992 -6.33301 1.33398 -9 2.00098s-5.66699 1.66699 -9 3c-4 0.666992 -8.33301 1.66699 -13 3s-9 2.66602 -13 3.99902v0zM404.009 599.99
c-8.66699 10 -17.334 17.166 -26.001 21.499s-17.334 6.83301 -26.001 7.5c-22.667 0 -43.5 -12 -62.5 -36s-35.167 -50.333 -48.5 -79c-7.33301 -15.333 -13.5 -30.333 -18.5 -45s-8.83301 -27.667 -11.5 -39l70.5 -6l70.5 -6c4.66699 33.333 11.334 64.833 20.001 94.5
s19.334 58.834 32.001 87.501v0z" />
    <glyph glyph-name="ampersand" unicode="%" horiz-adv-x="848" 
d="M789 711l-41.0029 -40.5l-39 -40.5c-51.333 -53.333 -100.166 -107.5 -146.499 -162.5s-92.166 -113.5 -137.499 -175.5l-98.5 -140.5l-101.5 -156.5l-45 2l-46 2c-15.333 0.666992 -30.666 1.16699 -45.999 1.5s-30.333 0.833008 -45 1.5l66.5 68l67.5 69
c84.667 86 166 175.333 244 268s140 194 186 304h91.5h90.5v0zM608.997 350l0.500977 -0.00195312h0.5h0.5h0.5c5.33301 0 10.666 -0.333008 15.999 -1s10.666 -1.66699 15.999 -3c33.333 -8 64.5 -26.333 93.5 -55s46.5 -59.334 52.5 -92.001
c0.666992 -3.33301 1.16699 -6.66602 1.5 -9.99902s0.5 -6.66602 0.5 -9.99902v-1.5v-1.5v-5.5c0 -1.66699 -0.333008 -3.5 -1 -5.5c-3.33301 -36.667 -20.666 -71 -51.999 -103s-65.333 -52.667 -102 -62c-6 -1.33301 -11.833 -2.5 -17.5 -3.5s-11.167 -1.5 -16.5 -1.5
c-8 0 -16.167 0.666992 -24.5 2s-16.833 3.33301 -25.5 6c-36.667 11.333 -70.167 32.333 -100.5 63s-45.5 63.667 -45.5 99v1.5v1.5c2 39.333 19.833 75.833 53.5 109.5s70.5 55.834 110.5 66.501c6.66699 2 13.167 3.5 19.5 4.5s12.833 1.5 19.5 1.5v0zM603.998 300.998
c-16.667 0 -30.333 -8.33496 -41 -25.002s-18.334 -35 -23.001 -55c-1.33301 -8 -2.5 -15.833 -3.5 -23.5s-1.5 -14.834 -1.5 -21.501v-3.5v-4.5c0 -6.66699 0.333008 -13.667 1 -21s1.66699 -14.666 3 -21.999c3.33301 -20.667 10 -39.667 20 -57s23.667 -26.333 41 -27v0
h1v0v0c16.667 -0.666992 29.667 7.83301 39 25.5s16 36.834 20 57.501c2 8.66699 3.5 17 4.5 25s1.5 15.667 1.5 23c0 6.66699 -0.333008 14.167 -1 22.5s-2 16.833 -4 25.5c-3.33301 20 -9.66602 38.333 -18.999 55s-22 25.334 -38 26.001v0zM220.999 714.996
l1.50195 0.00390625h1.5c6 0 12 -0.333008 18 -1s12 -2 18 -4c35.333 -9.33301 68.5 -29.333 99.5 -60s48.833 -63.667 53.5 -99c0 -2.66699 0.166992 -5.33398 0.5 -8.00098s0.5 -5.33398 0.5 -8.00098c0 -4 -0.166992 -7.83301 -0.5 -11.5s-0.833008 -7.5 -1.5 -11.5
c-6.66699 -38 -26.5 -73.5 -59.5 -106.5s-68.5 -53.833 -106.5 -62.5l-13.5 -2c-4.33301 -0.666992 -8.83301 -1 -13.5 -1h-0.5h-0.5h-0.5h-0.5c-4 0 -8 0.166992 -12 0.5s-8.33301 1.16602 -13 2.49902c-33.333 6.66699 -64.833 24.667 -94.5 54
s-48.834 60.666 -57.501 93.999c-2 6 -3.33301 11.833 -4 17.5s-1 11.167 -1 16.5c0 3.33301 0.166992 6.83301 0.5 10.5s0.833008 7.16699 1.5 10.5c6.66699 38 26.167 73.5 58.5 106.5s67.166 53.167 104.499 60.5c3.33301 0.666992 6.83301 1.16699 10.5 1.5
s7.16699 0.5 10.5 0.5v0zM225.001 664h-1.49805h-1.5c-15.333 0 -27.833 -7.83301 -37.5 -23.5s-16.834 -32.834 -21.501 -51.501c-1.33301 -8 -2.5 -15.667 -3.5 -23s-1.5 -14.333 -1.5 -21c0 -8 0.333008 -16.5 1 -25.5s1.66699 -18.5 3 -28.5
c3.33301 -22 9.66602 -42.5 18.999 -61.5s23.333 -28.833 42 -29.5h1.5h1.5c16 -0.666992 29 8 39 26s17 37.667 21 59c2 8.66699 3.33301 17.334 4 26.001s1 16.667 1 24c0 6.66699 -0.5 14 -1.5 22s-2.16699 16 -3.5 24c-4.66699 20 -12 38.333 -22 55s-23 26 -39 28v0z
" />
    <glyph glyph-name="quotesingle" unicode="&#x26;" horiz-adv-x="768" 
d="M320 646l3.5 -0.00292969h3.5h3.5h3.5c10.667 0 21.5 -0.666992 32.5 -2s22.167 -3 33.5 -5c39.333 -8.66699 76.666 -23.834 111.999 -45.501s61.333 -46.834 78 -75.501h-81h-79c-4 4.66699 -8 9.66699 -12 15s-8.66699 10.666 -14 15.999
c-10.667 12.667 -22.667 24.167 -36 34.5s-27.333 15.5 -42 15.5h-2h-2c-0.666992 -0.666992 -1.33398 -1 -2.00098 -1h-2c-4.66699 -0.666992 -9.5 -1.66699 -14.5 -3s-10.167 -3 -15.5 -5c-22 -9.33301 -42.333 -23.166 -61 -41.499s-28 -38.166 -28 -59.499v-2v-1v-2v-2
c1.33301 -20 10.5 -36.167 27.5 -48.5s35.833 -23.833 56.5 -34.5l29 -16c9.33301 -5.33301 18 -11.333 26 -18l-25.5 -16.5l-27.5 -16.5c-25.333 -16 -48.833 -33.667 -70.5 -53s-33.167 -42.666 -34.5 -69.999v-1.5v-0.5c0 -4 0.166992 -7.83301 0.5 -11.5
s0.833008 -7.16699 1.5 -10.5c6.66699 -28.667 22 -55.5 46 -80.5s50 -41.833 78 -50.5c3.33301 -1.33301 6.66602 -2.33301 9.99902 -3l10 -2c8.66699 -1.33301 20.334 3.66699 35.001 15s30 26.333 46 45c13.333 16 26.5 34 39.5 54s23.833 40.333 32.5 61
c4 8.66699 7.33301 17.334 10 26.001s5 17 7 25c-3.33301 0.666992 -6.83301 1.16699 -10.5 1.5s-7.5 0.5 -11.5 0.5c-8.66699 0 -18.334 -0.666992 -29.001 -2s-22.334 -3 -35.001 -5c-0.666992 4 -1.16699 7.83301 -1.5 11.5s-0.833008 7.5 -1.5 11.5
s-1.16699 7.83301 -1.5 11.5s-0.833008 7.5 -1.5 11.5c26.667 9.33301 52.334 16 77.001 20s48.667 6 72 6c19.333 0 38.5 -1 57.5 -3s38.167 -5 57.5 -9c12.667 -2 25.334 -4.33301 38.001 -7s25.334 -5.66699 38.001 -9c0 -4 -0.166992 -8 -0.5 -12
s-0.5 -8.33301 -0.5 -13s-0.166992 -9 -0.5 -13s-0.5 -8 -0.5 -12c-9.33301 2 -19.333 4 -30 6s-21.667 3.33301 -33 4c-4 0 -8.16699 0.166992 -12.5 0.5s-8.5 0.5 -12.5 0.5c-21.333 -88.667 -63 -154.5 -125 -197.5s-128.333 -68.167 -199 -75.5
c-2 0 -4 -0.166992 -6 -0.5s-3.66699 -0.5 -5 -0.5h-6h-6c-6 0 -12 0.166992 -18 0.5s-12 1.16602 -18 2.49902c-55.333 8 -107.666 32 -156.999 72s-82.666 85.667 -99.999 137c0 22.667 12.167 41.5 36.5 56.5s50.833 29.167 79.5 42.5l42.5 20
c13.667 6.66699 25.834 14 36.501 22c-10 6.66699 -20.833 13 -32.5 19s-23.5 11.667 -35.5 17c-26 12.667 -50 25.834 -72 39.501s-34.667 31.834 -38 54.501c13.333 40 40.166 72.333 80.499 97s83.5 42.334 129.5 53.001c13.333 3.33301 26.666 6 39.999 8
s26.333 3.33301 39 4v0z" />
    <glyph glyph-name="parenleft" unicode="'" horiz-adv-x="500" 
 />
    <glyph glyph-name="parenright" unicode="(" horiz-adv-x="203" 
d="M172 563l-3.99805 -16c-4.66699 -14.667 -8.83398 -29 -12.501 -43s-7.16699 -28.333 -10.5 -43c-9.33301 -42.667 -16.333 -85.667 -21 -129s-7 -87.666 -7 -132.999c0 -92.667 4.5 -170.334 13.5 -233.001s22.167 -111.667 39.5 -147
c-18.667 2 -34.834 7.83301 -48.501 17.5s-26.167 24.834 -37.5 45.501c-18.667 32 -32.834 74.333 -42.501 127s-14.5 116 -14.5 190c0 51.333 2.83301 98.666 8.5 141.999s13.5 81.333 23.5 114c10.667 34 24.834 60.5 42.501 79.5s37.167 28.5 58.5 28.5h12v0z" />
    <glyph glyph-name="asterisk" unicode=")" horiz-adv-x="203" 
d="M8 -182c19.333 60 33.499 120.33 42.499 180.997s13.5 122.334 13.5 185.001c0 94.667 -4.33301 173.334 -13 236.001s-21.667 111.334 -39 146.001c18.667 -0.666992 34.667 -5.66699 48 -15s26 -24.333 38 -45c18.667 -33.333 32.334 -76.833 41.001 -130.5
s13 -117.5 13 -191.5c0 -50.667 -2.66699 -98 -8 -142s-13 -83 -23 -117c-9.33301 -32.667 -23 -58.5 -41 -77.5s-38 -28.5 -60 -28.5l-12 -1v0z" />
    <glyph glyph-name="plus" unicode="*" horiz-adv-x="303" 
d="M139 436c-10 2 -20.332 3.66602 -30.999 4.99902s-21.334 2 -32.001 2c-3.33301 0.666992 -6.66602 1 -9.99902 1h-9c-8 0.666992 -15.667 1.16699 -23 1.5s-14.666 0.833008 -21.999 1.5l9 16.5c2.66699 5 4.66699 9.83301 6 14.5c2 6 3.5 12 4.5 18s1.5 12.667 1.5 20
c7.33301 -6 14 -11.167 20 -15.5l17 -12.5c2 -1.33301 3.83301 -2.5 5.5 -3.5s3.16699 -2.16699 4.5 -3.5l18 -11.5l21 -12.5l22 -14c-2 14 -4.66699 27.833 -8 41.5s-7 27.167 -11 40.5c-2 6.66699 -3.83301 13.5 -5.5 20.5s-3.5 13.833 -5.5 20.5
c5.33301 -0.666992 10.333 -1.16699 15 -1.5s9 -0.5 13 -0.5h4.5h4.5c5.33301 0 11 0.166992 17 0.5s12.333 0.833008 19 1.5c-2.66699 -6.66699 -5 -13 -7 -19s-4 -11.667 -6 -17l-4 -11.5c-1.33301 -3.66699 -2.33301 -7.5 -3 -11.5
c-2.66699 -8.66699 -5.16699 -18 -7.5 -28l-8.5 -36c3.33301 2 6.16602 3.5 8.49902 4.5s4.83301 2.16699 7.5 3.5c0 0.666992 0.333008 1.16699 1 1.5s1.33398 0.5 2.00098 0.5c3.33301 2 7.16602 4.5 11.499 7.5l18.5 12.5l41 25l20 14
c0.666992 -11.333 1.66699 -20.833 3 -28.5s3.66602 -15.167 6.99902 -22.5c2 -2.66699 3.83301 -5.5 5.5 -8.5l5.5 -9.5h-31h-3.5h-3.5c-11.333 0 -23.5 -0.333008 -36.5 -1s-31.167 -2.66699 -54.5 -6c2.66699 -2 5 -3.83301 7 -5.5s4 -3.16699 6 -4.5
c0 -0.666992 0.166992 -1 0.5 -1h0.5l11 -10.5c4 -3.66699 10 -8.5 18 -14.5l37 -31l18 -15c-12.667 -4.66699 -23 -9.5 -31 -14.5s-15.333 -11.5 -22 -19.5l-3.5 -3.5c-1 -1 -1.83301 -2.16699 -2.5 -3.5c-0.666992 3.33301 -1.5 6.33301 -2.5 9s-1.83301 5.66699 -2.5 9
s-1.66699 6.83301 -3 10.5l-4 10.5c-3.33301 10.667 -7.5 22.167 -12.5 34.5l-19.5 47.5c-10 -19.333 -19 -39 -27 -59s-14.667 -40.333 -20 -61c-4.66699 6 -9.16699 11.167 -13.5 15.5s-8.5 8.16602 -12.5 11.499c-4.66699 3.33301 -9.66699 6.33301 -15 9
s-11.333 5 -18 7c6 4 11.5 7.83301 16.5 11.5s9.5 7.16699 13.5 10.5c1.33301 0.666992 2.33301 1.33398 3 2.00098s1.66699 1.33398 3 2.00098l26.5 21.5c9.66699 7.66699 22.167 18.167 37.5 31.5v0z" />
    <glyph glyph-name="comma" unicode="+" horiz-adv-x="508" 
d="M266 240l19.001 0.000976562h20c17.333 0 38.5 0.5 63.5 1.5s50.5 2.16699 76.5 3.5c1.33301 0.666992 2.66602 1 3.99902 1h4l-37 -64h-152v-26c-0.666992 -13.333 -1.16699 -24.833 -1.5 -34.5s-0.5 -19.167 -0.5 -28.5v-5v-6l2 -86l-69 -31
c0.666992 7.33301 1.16699 14.166 1.5 20.499s0.833008 12.166 1.5 17.499c0 6.66699 0.166992 13.334 0.5 20.001s0.5 13.667 0.5 21c0.666992 7.33301 1.16699 15.333 1.5 24s0.5 18 0.5 28v72v12h-31h-31l-92 -2h-27l31 62h25h63h64v14v27l-2 73l-2 52v16l71 29v-8v-50
l-2 -75v-39l-2 -39v0z" />
    <glyph glyph-name="hyphen" unicode="," horiz-adv-x="361" 
d="M232 139l81.999 -3.99805l-193 -233c-6 1.33301 -12.333 2.5 -19 3.5s-13.334 2.16699 -20.001 3.5c-4 0.666992 -8 1.5 -12 2.5s-8 1.83301 -12 2.5c-3.33301 0.666992 -6.5 1.5 -9.5 2.5s-6.16699 1.83301 -9.5 2.5c0.666992 0.666992 1.33398 1.5 2.00098 2.5
s1.33398 1.83301 2.00098 2.5v0v0c1.33301 1.33301 2.5 2.66602 3.5 3.99902s2.5 3.66602 4.5 6.99902c29.333 24.667 57.833 52 85.5 82s52.834 61 75.501 93c3.33301 5.33301 6.66602 10.333 9.99902 15l10 14v0z" />
    <glyph glyph-name="period" unicode="-" horiz-adv-x="338" 
d="M35 254h170h24.5c7 0 14.167 0.333008 21.5 1c6.66699 0 14 0.5 22 1.5l28 3.5h6l-14 -47h-188h-27l-35 -2l-16 -2l8 45v0z" />
    <glyph glyph-name="slash" unicode="." horiz-adv-x="260" 
d="M102 98l107 -61l-72 -43l-98 67l63 37v0z" />
    <glyph glyph-name="zero" unicode="/" horiz-adv-x="406" 
d="M396 566l-21 -44.999l-25 -54l-25 -54l-124 -273.5c-40.667 -91.667 -77.667 -184.167 -111 -277.5c-8 -3.33301 -15.833 -6.83301 -23.5 -10.5l-22.5 -10.5c-1.33301 -0.666992 -2.83301 -1.33398 -4.5 -2.00098s-3.16699 -1.66699 -4.5 -3l-18.5 -8.5l-17.5 -8.5l17 36
l20.5 47.5l20.5 47.5l121 282.5c40 95 77 190.833 111 287.5l107 46v0z" />
    <glyph glyph-name="one" unicode="0" horiz-adv-x="633" 
d="M594 250c0 -38 -8.16699 -74.833 -24.5 -110.5s-38.166 -65.167 -65.499 -88.5c-23.333 -19.333 -49 -32.833 -77 -40.5s-65.667 -11.5 -113 -11.5h-8h-9h-39.5c-13.667 0 -27.5 0.333008 -41.5 1c-32 2.66699 -62.833 9.16699 -92.5 19.5s-54.5 29.166 -74.5 56.499
c-13.333 18.667 -23.166 39.834 -29.499 63.501s-9.5 48.167 -9.5 73.5v12c0 4 0.333008 8 1 12c3.33301 50.667 18 98.167 44 142.5s60.333 72.833 103 85.5c21.333 5.33301 46.833 9.83301 76.5 13.5s62.834 5.5 99.501 5.5c43.333 0 77.166 -2.5 101.499 -7.5
s45.166 -14.167 62.499 -27.5c29.333 -17.333 52.666 -44.333 69.999 -81s26 -76 26 -118v0zM469 229c0 8.66699 -0.49707 17.3311 -1.49707 25.998s-2.5 17.667 -4.5 27c-10 42.667 -30 81.834 -60 117.501s-65.333 53.5 -106 53.5
c-2.66699 0 -5.33398 -0.166992 -8.00098 -0.5s-5.33398 -0.5 -8.00098 -0.5c-34.667 -6.66699 -66.834 -29.167 -96.501 -67.5s-47.167 -80.166 -52.5 -125.499c0 -4 -0.166992 -7.83301 -0.5 -11.5s-0.5 -7.5 -0.5 -11.5s0.166992 -8.16699 0.5 -12.5s0.5 -8.5 0.5 -12.5
c2.66699 -22 8.16699 -43.5 16.5 -64.5s19.5 -39.833 33.5 -56.5c15.333 -18.667 32.333 -32.5 51 -41.5s37.667 -13.5 57 -13.5h1.5h1.5c44 0.666992 84.333 19.5 121 56.5s55 82.833 55 137.5v0z" />
    <glyph glyph-name="two" unicode="1" horiz-adv-x="453" 
d="M66 475l6 2.00098c14 0.666992 30.5 1.16699 49.5 1.5s38.5 0.833008 58.5 1.5c4.66699 0.666992 9.33398 1 14.001 1s9.66699 0.333008 15 1c24 0.666992 46.167 1.33398 66.5 2.00098s34.5 1.33398 42.5 2.00098c-4.66699 -23.333 -8.66699 -50.833 -12 -82.5
s-6.33301 -63.834 -9 -96.501c-4 -56 -6.66699 -108 -8 -156s-2 -77.333 -2 -88l139 3l-28 -68h-375l38 68l97 -3h6c5.33301 33.333 9.83301 66.833 13.5 100.5s5.5 67.5 5.5 101.5c0 25.333 -1 50.666 -3 75.999s-5.33301 50.333 -10 75h-4c-1.33301 0 -3 0.333008 -5 1h-5
h-6c-6.66699 0 -13.834 -0.166992 -21.501 -0.5s-15.5 -0.5 -23.5 -0.5l-31.5 -2c-10.333 -0.666992 -18.833 -1.33398 -25.5 -2.00098c-3.33301 -0.666992 -6 -1.16699 -8 -1.5s-3.66699 -0.5 -5 -0.5l31 65v0z" />
    <glyph glyph-name="three" unicode="2" horiz-adv-x="541" 
d="M287 53c10.667 1.33301 21.3291 2.50098 31.9961 3.50098s21.334 1.83301 32.001 2.5c10 1.33301 19.833 2.33301 29.5 3s19.5 1.66699 29.5 3c13.333 1.33301 27 3.16602 41 5.49902s27.667 4.83301 41 7.5l22 4l-39 -84h-450l12 27
c55.333 18 107.833 43.833 157.5 77.5s92.834 73.834 129.501 120.501l-27 -10c-3.33301 -0.666992 -6.5 -1.33398 -9.5 -2.00098s-5.83301 -1.33398 -8.5 -2.00098c-11.333 -2.66699 -22 -5 -32 -7s-18.667 -3 -26 -3c-34.667 0 -64.5 13.667 -89.5 41s-37.5 60 -37.5 98
c0 44.667 14.667 78.334 44 101.001s61.333 36.667 96 42c6.66699 1.33301 13 2.16602 19 2.49902s12 0.5 18 0.5h30c8.66699 0 17.834 -0.166992 27.501 -0.5s19.167 -1.16602 28.5 -2.49902c34.667 -4.66699 66.5 -16.167 95.5 -34.5s43.5 -50.5 43.5 -96.5
c0 -5.33301 -0.166992 -10.833 -0.5 -16.5s-1.16602 -11.167 -2.49902 -16.5c-6.66699 -40.667 -26.5 -82 -59.5 -124s-81.833 -88.667 -146.5 -140v0zM272.995 240.001c30.667 0 57.333 12.501 80 37.501s34 53.5 34 85.5c0 25.333 -7.83301 46.666 -23.5 63.999
s-35.167 26 -58.5 26c-27.333 0 -50.833 -12 -70.5 -36s-29.5 -53.667 -29.5 -89c0 -26.667 6 -48 18 -64s28.667 -24 50 -24v0z" />
    <glyph glyph-name="four" unicode="3" horiz-adv-x="496" 
d="M488 469l-50.001 -44.999l-23.5 -22.5l-23.5 -22.5l-61.5 -62.5c-20.333 -21 -39.833 -43.167 -58.5 -66.5c7.33301 -0.666992 15 -1.66699 23 -3s16 -3.33301 24 -6c30.667 -7.33301 58.5 -20.5 83.5 -39.5s37.5 -47.167 37.5 -84.5
c0 -44.667 -15.5 -80.167 -46.5 -106.5s-65.167 -44.833 -102.5 -55.5c-12.667 -4 -25.5 -6.83301 -38.5 -8.5s-25.167 -2.5 -36.5 -2.5c-13.333 0 -27 0.166992 -41 0.5s-28 0.833008 -42 1.5c-18 1.33301 -35.833 3.33301 -53.5 6s-34.834 6.66699 -51.501 12l18 81
l10 -10c33.333 -20.667 60.333 -35.334 81 -44.001s40.334 -13 59.001 -13c30.667 0 57.334 11.167 80.001 33.5s34 49.166 34 80.499c0 39.333 -12.5 66.666 -37.5 81.999s-53.833 23 -86.5 23c-4 0 -8 -0.166992 -12 -0.5s-8 -0.5 -12 -0.5
c-15.333 -1.33301 -30.666 -4 -45.999 -8s-29 -8.66699 -41 -14l-19 -6l-10 21c49.333 36.667 94.333 75 135 115s76.334 82 107.001 126h-17c-12.667 0 -25.167 -0.166992 -37.5 -0.5s-24.833 -0.833008 -37.5 -1.5c-20 -1.33301 -40.5 -3.16602 -61.5 -5.49902
s-42.167 -5.16602 -63.5 -8.49902h-15l41 70h6h97h121c25.333 0 49 -1 71 -3s43.667 -4.33301 65 -7c5.33301 -0.666992 10.666 -1.5 15.999 -2.5s10.666 -1.83301 15.999 -2.5v0z" />
    <glyph glyph-name="five" unicode="4" horiz-adv-x="609" 
d="M453 494l-0.00195312 -35c0 -12.667 -0.166992 -25.167 -0.5 -37.5s-0.5 -24.833 -0.5 -37.5s-0.166992 -25.167 -0.5 -37.5s-0.833008 -24.833 -1.5 -37.5l-2 -75c-0.666992 -25.333 -1 -50.666 -1 -75.999l-4 -62v-10h8c10.667 0 21.334 0.333008 32.001 1l33 2l32 2
c10.667 0.666992 21.334 1 32.001 1l-16 -76h-121v-4l-4 -78l-1 -69l-2 -11l-122 3l2 10l8 70l4 69v10c-31.333 -0.666992 -58.5 -1.33398 -81.5 -2.00098s-44.833 -1 -65.5 -1c-22 -0.666992 -45 -1 -69 -1h-87l317 476c6 1.33301 12 2.33301 18 3s11.667 1 17 1
c12 1.33301 24 2 36 2h34h6v0zM331.998 379l-14.501 -20.499l-15.5 -21.5l-77 -117c-25.333 -40 -48.333 -81.333 -69 -124c14 -4.66699 28.5 -8.16699 43.5 -10.5s29.833 -3.83301 44.5 -4.5c10.667 -0.666992 21.334 -1 32.001 -1h31h13h12v6
c2 11.333 3.33301 22.666 4 33.999s1 23 1 35c0 9.33301 -0.166992 18.833 -0.5 28.5s-0.5 19.5 -0.5 29.5c-0.666992 9.33301 -1.16699 18.833 -1.5 28.5s-0.5 19.167 -0.5 28.5v41v30.5c0 7 -0.333008 13.5 -1 19.5c0 2.66699 -0.166992 5.5 -0.5 8.5
s-0.5 6.16699 -0.5 9.5v0z" />
    <glyph glyph-name="six" unicode="5" horiz-adv-x="576" 
d="M426 482l127.001 -222l-114 2l-23 35.5c-7.33301 11.667 -14.333 23.5 -21 35.5c-2 4 -4.16699 8 -6.5 12s-4.5 8 -6.5 12l-13.5 23.5l-13.5 23.5l-121 -154c4 -0.666992 13.667 -3.66699 29 -9s32 -13.333 50 -24c20 -12 38.333 -27.333 55 -46s25 -40.667 25 -66
c0 -49.333 -21.5 -88.5 -64.5 -117.5s-99.833 -43.5 -170.5 -43.5c-21.333 0 -42.5 0.666992 -63.5 2s-40.167 4 -57.5 8l-4 91l14 -10c19.333 -15.333 35.666 -26.5 48.999 -33.5s26.333 -11.833 39 -14.5c4 -0.666992 8 -1.16699 12 -1.5s8.33301 -0.5 13 -0.5
c32.667 0 61 12.833 85 38.5s36 54.834 36 87.501c0 37.333 -12.333 64.666 -37 81.999s-52 26 -82 26h-6h-7c-10 -1.33301 -20.167 -3.33301 -30.5 -6s-19.833 -6.66699 -28.5 -12l-8 8l201 273h143v0z" />
    <glyph glyph-name="seven" unicode="6" horiz-adv-x="541" 
d="M512 580l-17.9971 -3.99609c-19.333 -6 -39.833 -12.833 -61.5 -20.5s-43.834 -16.834 -66.501 -27.501c-63.333 -28.667 -121.333 -66.834 -174 -114.501s-79 -106.834 -79 -177.501c0 -48.667 15.167 -91 45.5 -127s66.833 -54 109.5 -54c34 0 63.333 15.167 88 45.5
s37 63.833 37 100.5c0 51.333 -15.833 89.166 -47.5 113.499s-66.5 36.5 -104.5 36.5c-12.667 0 -25.167 -1.16699 -37.5 -3.5s-24.166 -6.16602 -35.499 -11.499l10 27c27.333 19.333 55.166 34.333 83.499 45s57.833 16 88.5 16c42 0 77.5 -16.167 106.5 -48.5
s43.5 -73.5 43.5 -123.5c0 -6.66699 -0.5 -13.334 -1.5 -20.001s-2.16699 -13.667 -3.5 -21c-7.33301 -30 -21.833 -59 -43.5 -87s-47.834 -51 -78.501 -69l-10 -6l-10 -6c-16.667 -9.33301 -34.5 -18.333 -53.5 -27s-38.167 -15.334 -57.5 -20.001
c-9.33301 -2.66699 -19 -4.83398 -29 -6.50098s-19.667 -2.5 -29 -2.5c-52.667 0 -94.5 21.333 -125.5 64s-48.167 89.667 -51.5 141c-0.666992 3.33301 -1 6.5 -1 9.5v9.5c0 80 24.167 147.5 72.5 202.5s101.5 103.5 159.5 145.5l50 35l48 33l16 10l21 -6
c6 -1.33301 11.5 -2.66602 16.5 -3.99902l14.5 -4c8.66699 -2 16.667 -4.16699 24 -6.5s14.666 -5.16602 21.999 -8.49902c9.33301 -3.33301 18.833 -7.33301 28.5 -12l33.5 -16v0z" />
    <glyph glyph-name="eight" unicode="7" horiz-adv-x="475" 
d="M443 482l-24.499 -38.501l-24.5 -38.5l-16 -23l-16 -24c-37.333 -56 -73 -113 -107 -171s-59.667 -119.667 -77 -185c-6 -0.666992 -11.333 -1.16699 -16 -1.5s-9 -0.5 -13 -0.5c-6.66699 -0.666992 -13.667 -1 -21 -1h-30l-65 -1h-27l19 23
c45.333 59.333 88.666 121.166 129.999 185.499s76.333 130.833 105 199.5h-20l-76 4h-6.5h-7.5c-16 0 -32.833 -0.666992 -50.5 -2s-39.834 -3.33301 -66.501 -6l-27 -4l10 16l9 25l14 25c2.66699 4.66699 4.66699 8.33398 6 11.001c0.666992 0 1.16699 0.333008 1.5 1
l0.5 1c0.666992 0.666992 1.33398 1.5 2.00098 2.5s1.33398 1.83301 2.00098 2.5l10 -3l64 -2l70 -2l75 -2c10 0 23.167 0.166992 39.5 0.5s33.166 0.833008 50.499 1.5l35.5 2c11.667 0.666992 22.5 1.33398 32.5 2.00098l15 3v0z" />
    <glyph glyph-name="nine" unicode="8" horiz-adv-x="484" 
d="M346 268c28 -14 49.6689 -31.1641 65.002 -51.4971s23 -43.166 23 -68.499c0 -44.667 -14.833 -78.334 -44.5 -101.001s-62.5 -37.334 -98.5 -44.001c-9.33301 -2 -18.666 -3.16699 -27.999 -3.5s-18.333 -0.5 -27 -0.5l-29 -1c-9.33301 0.666992 -19 1.16699 -29 1.5
s-20 0.833008 -30 1.5c-31.333 3.33301 -60 12.833 -86 28.5s-39 43.5 -39 83.5c0 32.667 9.16699 57.667 27.5 75s39.166 31.333 62.499 42l6 6l-12 6c-24.667 14.667 -46 31.667 -64 51s-27 46 -27 80c0 63.333 20.333 109.166 61 137.499s85.334 45.5 134.001 51.5
c1.33301 0 2.66602 0.166992 3.99902 0.5s2.66602 0.5 3.99902 0.5c12 1.33301 24.667 2.66602 38 3.99902s26.666 2 39.999 2h5.5h5.5c42 -1.33301 80.667 -11.5 116 -30.5s53 -56.5 53 -112.5c0 -40 -11.167 -72.5 -33.5 -97.5s-49.833 -44.167 -82.5 -57.5l-15 -3v0z
M311.002 129.003c0 29.333 -9.33203 51.5 -27.999 66.5s-39.334 22.5 -62.001 22.5c-23.333 0 -44.833 -7.66699 -64.5 -23s-29.5 -38.666 -29.5 -69.999c0 -30.667 9.16699 -53.334 27.5 -68.001s38.5 -22 60.5 -22h2.5h3.5c22 1.33301 42.5 9.83301 61.5 25.5
s28.5 38.5 28.5 68.5v0zM367.003 402.003c0 35.333 -11.5 65.9971 -34.5 91.9971s-49.833 39 -80.5 39c-2.66699 0 -5.5 -0.166992 -8.5 -0.5s-5.83301 -0.833008 -8.5 -1.5c-26 -6 -49.833 -22.167 -71.5 -48.5s-32.5 -55.166 -32.5 -86.499
c0 -35.333 11.667 -61.833 35 -79.5s49.333 -26.5 78 -26.5h1.5h1.5c30 0.666992 57.5 10.334 82.5 29.001s37.5 46.334 37.5 83.001v0z" />
    <glyph glyph-name="colon" unicode="9" horiz-adv-x="586" 
d="M211 -172l-166 41.0049c1.33301 1.33301 2.83301 2.33301 4.5 3s3.16699 1.33398 4.5 2.00098l59.5 28.5l63.5 30.5c62 30 118.667 67.5 170 112.5s77 107.167 77 186.5c0 52 -16.667 95.667 -50 131s-74 53 -122 53c-30.667 0 -56 -13.167 -76 -39.5
s-30 -59.5 -30 -99.5c0 -24 4.16699 -46.167 12.5 -66.5s21.833 -39.833 40.5 -58.5c13.333 -10.667 26.333 -18.667 39 -24s25 -8 37 -8c3.33301 0 6.33301 0.166992 9 0.5s5.66699 0.833008 9 1.5c12 2 24 6.16699 36 12.5s24.667 14.166 38 23.499l24 -10
c-18.667 -32.667 -44.334 -58.667 -77.001 -78s-67.667 -29 -105 -29c-50 0 -90.167 16.333 -120.5 49s-45.5 75 -45.5 127c0 27.333 4.83301 53.166 14.5 77.499s25.5 48.166 47.5 71.499c4.66699 5.33301 9.83398 10.666 15.501 15.999s11.834 10.666 18.501 15.999
c38 32.667 75 57.5 111 74.5s66.667 25.5 92 25.5c54 0 100 -22.667 138 -68s59.333 -95 64 -149c0.666992 -3.33301 1 -6.83301 1 -10.5v-10.5c0 -26 -4.5 -52.833 -13.5 -80.5s-21.833 -55.834 -38.5 -84.501c-28 -48 -66.333 -95 -115 -141
s-104.334 -87.667 -167.001 -125v-1z" />
    <glyph glyph-name="semicolon" unicode=":" horiz-adv-x="270" 
d="M111 98l108 -61l-73 -43l-97 67l62 37v0zM111 301l108 -61l-73 -41l-97 67l62 35v0z" />
    <glyph glyph-name="less" unicode=";" horiz-adv-x="350" 
d="M230 139l82.999 -4.00098l-194 -233c-6 1.33301 -12.5 2.5 -19.5 3.5s-13.833 2.16699 -20.5 3.5c-4 0.666992 -8 1.5 -12 2.5s-8 1.83301 -12 2.5s-7.5 1.5 -10.5 2.5s-6.16699 1.83301 -9.5 2.5c0.666992 1.33301 1.33398 2.33301 2.00098 3s1.66699 1.33398 3 2.00098
l4 4c1.33301 1.33301 3 3.66602 5 6.99902c34 30 66.167 62.333 96.5 97s58.5 70.334 84.5 107.001v0zM208.999 300.999l107 -61l-72 -41l-96 67l61 35v0z" />
    <glyph glyph-name="equal" unicode="&#x3c;" horiz-adv-x="361" 
d="M354 521v-41l-237 -154l237 -158v-111l-348 236v8l348 220v0z" />
    <glyph glyph-name="greater" unicode="=" horiz-adv-x="541" 
d="M35 117l31 61h26h174c19.333 0 37.166 0.166992 53.499 0.5s32.5 0.833008 48.5 1.5c15.333 0.666992 31.333 1.5 48 2.5s34.334 2.16699 53.001 3.5l-35 -65h-135l-49 -2h-94l-93 -2h-28v0zM47 240l31 61h26h173c18 0 34.833 0.166992 50.5 0.5
s31.167 0.833008 46.5 1.5c16 0.666992 32.5 1.5 49.5 2.5s35.5 2.16699 55.5 3.5l-36 -65h-132l-51 -2l-92 -2h-94h-27v0z" />
    <glyph glyph-name="question" unicode="&#x3e;" horiz-adv-x="430" 
d="M27 57v41l237 152l-237 160v111l350 -238v-4l-350 -222v0z" />
    <glyph glyph-name="at" unicode="?" horiz-adv-x="350" 
d="M135 102l13.0029 -4.00098l42.5 -7c12.333 -2 24.5 -3.66699 36.5 -5c1.33301 0 3 -0.166992 5 -0.5s4 -0.833008 6 -1.5l28.5 -4c9.66699 -1.33301 20.5 -2.66602 32.5 -3.99902l-108 -80c-8.66699 2 -17.334 3.83301 -26.001 5.5s-17.334 3.83398 -26.001 6.50098
c-12.667 3.33301 -25.334 7.16602 -38.001 11.499s-25 8.83301 -37 13.5c-4.66699 1.33301 -9.5 2.83301 -14.5 4.5s-9.83301 3.5 -14.5 5.5l100 59v0zM23.0029 536.999c12 10.667 25.334 20.5 40.001 29.5s29.334 17.167 44.001 24.5c17.333 8 34.166 14.333 50.499 19
s30.833 7 43.5 7c24.667 0 45.167 -7 61.5 -21s24.5 -31.667 24.5 -53c0 -24.667 -7 -46.5 -21 -65.5s-29 -37.5 -45 -55.5c-16.667 -17.333 -32 -35.5 -46 -54.5s-21 -41.167 -21 -66.5c0 -22.667 6.66699 -38.5 20 -47.5s29 -13.5 47 -13.5
c3.33301 0 6.5 0.166992 9.5 0.5s6.16699 0.5 9.5 0.5c13.333 2 26.5 5.16699 39.5 9.5s24.167 8.83301 33.5 13.5v-30c-12.667 -12.667 -27.334 -24 -44.001 -34s-34 -18.667 -52 -26c-14 -4.66699 -27.667 -8.5 -41 -11.5s-25.666 -4.5 -36.999 -4.5
c-28.667 0 -51.5 7 -68.5 21s-25.5 31.667 -25.5 53c0 23.333 6.66699 44.5 20 63.5s28 37.833 44 56.5c15.333 18 29.666 36.5 42.999 55.5s20 40.167 20 63.5c0 22.667 -6 38.167 -18 46.5s-26 12.5 -42 12.5c-3.33301 0 -6.83301 -0.166992 -10.5 -0.5
s-7.16699 -0.833008 -10.5 -1.5c-7.33301 -1.33301 -14.5 -3 -21.5 -5s-13.833 -4.33301 -20.5 -7l-10 -6l-16 27v0z" />
    <glyph glyph-name="A" unicode="@" horiz-adv-x="758" 
d="M578 80l58.9971 -32.9971c-8.66699 -4.66699 -17.5 -9.16699 -26.5 -13.5s-18.167 -8.5 -27.5 -12.5c-21.333 -8 -42 -14.333 -62 -19s-37.333 -7 -52 -7l-43 -1h-28h-60l-47 -4c-59.333 0.666992 -113.5 27.834 -162.5 81.501s-73.5 113.167 -73.5 178.5
c0 5.33301 0.166992 10.5 0.5 15.5s0.833008 10.167 1.5 15.5c8.66699 71.333 42.334 136.666 101.001 195.999s124 89 196 89h23h37h33h18h5.5h5.5c62 -3.33301 118.667 -27.166 170 -71.499s77 -99.833 77 -166.5c0 -8 -0.5 -16 -1.5 -24s-2.5 -16 -4.5 -24
c-8 -35.333 -24.167 -67.666 -48.5 -96.999s-55.166 -45.333 -92.499 -48h-12h-7l-12 -2h-5.5c-1.66699 0 -3.5 0.333008 -5.5 1c-14.667 2 -28.334 8.33301 -41.001 19s-20 23.334 -22 38.001c-6.66699 -4.66699 -13 -8.83398 -19 -12.501s-11.667 -6.83398 -17 -9.50098
c-6 -2.66699 -12 -4.66699 -18 -6s-12.333 -2.33301 -19 -3l-25 -2l-23 -2l-34 -2c-26 0 -47.333 9.83301 -64 29.5s-25 45.167 -25 76.5c0 39.333 13.333 73.166 40 101.499s57.334 42.5 92.001 42.5l26 -2l21 -2h24c4.66699 -0.666992 9.83398 -1.5 15.501 -2.5
s11.5 -1.83301 17.5 -2.5l21 -6l10 -2c6 0 12.667 1.33301 20 4s16.333 6.33398 27 11.001l8 2l-2 -21c-4 -24.667 -7 -49.167 -9 -73.5s-3 -48.833 -3 -73.5v-14.5c0 -5.66699 0.333008 -11.167 1 -16.5c1.33301 -12 4.5 -22.833 9.5 -32.5s13.833 -14.5 26.5 -14.5
c1.33301 0 2.83301 0.166992 4.5 0.5s3.5 0.833008 5.5 1.5c16.667 6 32.167 25.167 46.5 57.5s21.5 67.166 21.5 104.499c0 62.667 -25.167 116.167 -75.5 160.5s-105.833 66.5 -166.5 66.5c-78 0 -142.667 -29.667 -194 -89s-77.333 -124.333 -78 -195v-1.5v-1.5
c0 -28.667 4.66699 -56.834 14 -84.501s24.333 -53.5 45 -77.5c23.333 -28.667 52.5 -49.834 87.5 -63.501s70.833 -20.5 107.5 -20.5c34.667 -0.666992 68.5 4.66602 101.5 15.999s61.833 27.333 86.5 48v0zM472.997 322.003c-6 16 -15.1699 29.832 -27.5029 41.499
s-27.5 17.5 -45.5 17.5h-4c-1.33301 0 -2.66602 -0.333008 -3.99902 -1c-21.333 -2.66699 -41.166 -14.667 -59.499 -36s-29.833 -44.333 -34.5 -69c0 -2.66699 -0.166992 -5.5 -0.5 -8.5s-0.5 -5.83301 -0.5 -8.5c0 -21.333 6.83301 -40.333 20.5 -57
s28.834 -25 45.501 -25c21.333 0 40.5 9.33301 57.5 28s30.167 39.334 39.5 62.001c4 10 7.16699 19.833 9.5 29.5s3.5 18.5 3.5 26.5v0z" />
    <glyph glyph-name="B" unicode="A" horiz-adv-x="791" 
d="M53 271l-2.00293 31.001c-0.666992 10 -1 19.667 -1 29c0 103.333 23.833 187.333 71.5 252s104.167 106 169.5 124c22 6 42.833 10.333 62.5 13s37.834 4 54.501 4c46 0 85.5 -8 118.5 -24s63.167 -36.333 90.5 -61c29.333 -26.667 54.833 -61.5 76.5 -104.5
s36.5 -87.5 44.5 -133.5c2 -12 3.66699 -24 5 -36s2 -23.667 2 -35c0 -9.33301 -0.5 -18.5 -1.5 -27.5s-2.16699 -18.167 -3.5 -27.5c-2.66699 -16 -8.5 -36.333 -17.5 -61s-19.833 -50.334 -32.5 -77.001c-7.33301 -16 -15.166 -32 -23.499 -48s-16.833 -31 -25.5 -45
l-15.5 -22.5l-14.5 -19.5h-95v1.5v1.5v0.5v1.5c0 9.33301 0.5 18.333 1.5 27s2.5 17.334 4.5 26.001s4.16699 17.167 6.5 25.5l7.5 26.5c4 16 8 33.333 12 52s6.33301 39.667 7 63c-14 5.33301 -31.5 9.16602 -52.5 11.499s-43.167 3.5 -66.5 3.5h-20.5
c-7 0 -13.833 -0.333008 -20.5 -1c-32.667 -1.33301 -64.167 -4.33301 -94.5 -9s-53.833 -10.334 -70.5 -17.001c3.33301 -12.667 7.33301 -25.167 12 -37.5l14 -36.5c10 -24 19 -47.667 27 -71s12 -45.333 12 -66l-21.5 -4.5c-5 -1 -9.5 -1.5 -13.5 -1.5h-2h-2
c-4.66699 0 -11 0.5 -19 1.5s-20.667 2.5 -38 4.5c-7.33301 6 -17 16 -29 30s-24.333 30.667 -37 50c-11.333 16.667 -22.333 34.5 -33 53.5s-20 38.5 -28 58.5c-4.66699 12.667 -8.66699 25.334 -12 38.001s-5.66602 25 -6.99902 37v0zM565.997 299.001
c0.666992 5.33301 1.16992 10.5 1.50293 15.5s0.5 10.167 0.5 15.5c0 16.667 -1.33301 34.334 -4 53.001s-6.33398 37.667 -11.001 57c-14 55.333 -35.333 106 -64 152s-59.667 68.667 -93 68c-8.66699 0 -17.834 -2.83301 -27.501 -8.5s-19.5 -13.5 -29.5 -23.5
c-19.333 -19.333 -38 -45 -56 -77s-33 -65.333 -45 -100c-6 -19.333 -11 -38.5 -15 -57.5s-6 -36.833 -6 -53.5c0 -8.66699 0.5 -16.667 1.5 -24s2.5 -14.333 4.5 -21c19.333 9.33301 44.166 15.833 74.499 19.5s61.833 5.5 94.5 5.5c35.333 0 68.833 -1.83301 100.5 -5.5
s56.167 -8.83398 73.5 -15.501v0z" />
    <glyph glyph-name="C" unicode="B" horiz-adv-x="791" 
d="M148 21c-42 45.333 -74.335 98.1699 -97.002 158.503s-34 122.166 -34 185.499v10.5v11.5c2.66699 60 16.5 118.667 41.5 176s62.833 108.666 113.5 153.999c18 1.33301 35.667 2.33301 53 3s34.333 1 51 1c130.667 0 233.334 -16.333 308.001 -49
s119 -72.334 133 -119.001c0.666992 -2 1.16699 -4 1.5 -6s0.5 -4.33301 0.5 -7c0 -3.33301 -0.333008 -6.83301 -1 -10.5s-2 -7.5 -4 -11.5c-7.33301 -17.333 -22 -34.666 -44 -51.999s-45.667 -33.333 -71 -48c-20.667 -12.667 -40.667 -24 -60 -34
s-34.333 -18.333 -45 -25c8 -2 15.833 -4.16699 23.5 -6.5s15.5 -4.5 23.5 -6.5c48 -15.333 93.167 -35.333 135.5 -60s69.5 -56.334 81.5 -95.001c-1.33301 -28.667 -20.166 -56.334 -56.499 -83.001s-75.833 -48.667 -118.5 -66
c-18.667 -7.33301 -37.167 -13.666 -55.5 -18.999s-35.166 -9 -50.499 -11c-30 -2 -58.167 -3.5 -84.5 -4.5s-51.833 -1.5 -76.5 -1.5c-24.667 -0.666992 -48.5 -0.166992 -71.5 1.5s-46.167 4.5 -69.5 8.5c-4 0.666992 -8.33301 1.5 -13 2.5s-9.33398 1.83301 -14.001 2.5
v0zM284.998 63.0039h3h3h2.5h2.5c14 0 29.167 1.16699 45.5 3.5s32.5 5.83301 48.5 10.5c31.333 8 61.5 18.833 90.5 32.5s51.5 27.834 67.5 42.501c6 6 11 12.167 15 18.5s6 12.166 6 17.499v4c0 1.33301 -0.333008 2.33301 -1 3c-6 23.333 -28 45.666 -66 66.999
s-79.333 38.333 -124 51c-22 6.66699 -44 11.834 -66 15.501s-41.667 5.5 -59 5.5c-10.667 0 -20.167 -0.5 -28.5 -1.5s-15.5 -3.16699 -21.5 -6.5c1.33301 -46 7.5 -86.5 18.5 -121.5s22.833 -65.5 35.5 -91.5l15 -26.5l13 -23.5v0zM520.998 535.004v1.99805
c0 0.666992 0.333008 1.33398 1 2.00098v2v2c0 33.333 -21.167 59 -63.5 77s-88.833 30.667 -139.5 38l-16 2l-16 2c-16.667 -16.667 -31 -38.667 -43 -66s-21.667 -55.666 -29 -84.999c-5.33301 -22 -9.33301 -43.667 -12 -65s-4 -40.333 -4 -57
c6 -1.33301 12.167 -2.33301 18.5 -3s12.833 -1 19.5 -1c12 0 24.5 1 37.5 3s25.833 4.66699 38.5 8c31.333 8 61.833 19.5 91.5 34.5s54.5 30.833 74.5 47.5c12.667 10 22.667 20 30 30s11.333 19 12 27v0z" />
    <glyph glyph-name="D" unicode="C" horiz-adv-x="813" 
d="M764 494l-165.998 -3.99902c-2.66699 0 -8.5 9.83301 -17.5 29.5s-23.167 41.5 -42.5 65.5c-13.333 16.667 -29.333 32.5 -48 47.5s-40.667 26.833 -66 35.5c-69.333 -16.667 -121.333 -55.167 -156 -115.5s-52 -125.166 -52 -194.499c0 -68 16.167 -132 48.5 -192
s80.833 -99.667 145.5 -119c34.667 -0.666992 62.167 8.33301 82.5 27s36.5 39.334 48.5 62.001c9.33301 17.333 16.833 33.666 22.5 48.999s11.167 26.333 16.5 33c0 0.666992 0.166992 1.16699 0.5 1.5l1.5 1.5l184 9c-0.666992 -3.33301 -1.5 -6.83301 -2.5 -10.5
s-1.83301 -7.16699 -2.5 -10.5c-16.667 -52.667 -55 -100.834 -115 -144.501s-133.667 -65.834 -221 -66.501h-6h-5c-2 0.666992 -4 1 -6 1h-6c-118.667 12.667 -208.334 54.834 -269.001 126.501s-91.334 149.167 -92.001 232.5v2v2c0.666992 82 32 158.667 94 230
s156.333 114.333 283 129c77.333 -0.666992 139.5 -13.334 186.5 -38.001s82.833 -51.667 107.5 -81c19.333 -22 32.833 -43 40.5 -63s11.5 -35 11.5 -45v0z" />
    <glyph glyph-name="E" unicode="D" horiz-adv-x="824" 
d="M166 725l287 -3.99805c105.333 -32 184.833 -81.333 238.5 -148s81.167 -137 82.5 -211v-2.5v-2.5c0.666992 -74.667 -26 -145.334 -80 -212.001s-135.667 -115 -245 -145l-279 2c-45.333 44 -79 97.167 -101 159.5s-33.333 126.833 -34 193.5v4.5v4.5
c1.33301 67.333 13 132.666 35 195.999s54 118.333 96 165v0zM299 670.002c-19.333 -18 -36.332 -56.167 -50.999 -114.5s-24.334 -120.5 -29.001 -186.5v-4v-4l-2 -33.5c-0.666992 -11 -1 -22.167 -1 -33.5c0 -56 5.83301 -106.333 17.5 -151s30.834 -74 57.501 -88
c100 25.333 174.167 66.333 222.5 123s73.166 116.667 74.499 180v2.5v2.5c0 66 -24.667 128.333 -74 187s-121 98.667 -215 120v0z" />
    <glyph glyph-name="F" unicode="E" horiz-adv-x="781" 
d="M412 719c70.667 -14 136.666 -41.8379 197.999 -83.5049s105.333 -92.167 132 -151.5l-181 -7c-2.66699 8.66699 -7 20.834 -13 36.501s-14 31.834 -24 48.501c-12.667 22.667 -29.334 43.667 -50.001 63s-45.334 30.333 -74.001 33
c-54.667 -32.667 -96.167 -69.5 -124.5 -110.5s-44.833 -82.5 -49.5 -124.5c0 -4 -0.166992 -7.83301 -0.5 -11.5s-0.5 -7.5 -0.5 -11.5c21.333 4 41.333 7 60 9s36.667 3 54 3c8.66699 0 17.334 -0.166992 26.001 -0.5s17 -1.16602 25 -2.49902
c15.333 -1.33301 30.5 -3.33301 45.5 -6s30.5 -6 46.5 -10c0 -8 0.166992 -16 0.5 -24s0.833008 -16.333 1.5 -25l-10.5 1c-7 0.666992 -16.167 1.33398 -27.5 2.00098s-24.333 1.33398 -39 2.00098s-30 1 -46 1h-4h-4c-27.333 0 -53 -1.66699 -77 -5
s-40.333 -9.66602 -49 -18.999c-0.666992 -3.33301 -1.16699 -6.83301 -1.5 -10.5s-0.5 -7.16699 -0.5 -10.5c0 -13.333 1.83301 -27.5 5.5 -42.5s8.83398 -30.167 15.501 -45.5c15.333 -36.667 37.166 -70.834 65.499 -102.501s57.833 -49.834 88.5 -54.501
c1.33301 0 2.66602 -0.166992 3.99902 -0.5s2.66602 -0.5 3.99902 -0.5c22.667 5.33301 43.5 16.333 62.5 33s35.167 34.334 48.5 53.001c16.667 22 29.334 42.333 38.001 61l13 28l170 -4v0v0v-1v0c0 -11.333 -3.33301 -23 -10 -35s-16 -24.333 -28 -37
c-17.333 -18.667 -38.5 -36.834 -63.5 -54.501s-50.833 -33.5 -77.5 -47.5c-21.333 -12 -42.166 -22.333 -62.499 -31s-38.833 -15.334 -55.5 -20.001c-9.33301 -1.33301 -18.166 -2.33301 -26.499 -3s-16.166 -1 -23.499 -1c-8 0 -15.667 0.333008 -23 1
s-14 1.33398 -20 2.00098c-5.33301 0.666992 -10.166 1.33398 -14.499 2.00098s-8.83301 1 -13.5 1c-100.667 33.333 -174.834 81.5 -222.501 144.5s-71.5 129.167 -71.5 198.5c-0.666992 84 32.333 162.5 99 235.5s161.667 117.833 285 134.5v0z" />
    <glyph glyph-name="G" unicode="F" horiz-adv-x="791" 
d="M316 715l9.99512 0.99707c6.66699 0.666992 15.334 1.33398 26.001 2.00098s22.834 1.33398 36.501 2.00098s27.834 1 42.501 1c9.33301 0 18.333 -0.166992 27 -0.5s17.334 -0.833008 26.001 -1.5c42.667 -6.66699 79.834 -20.667 111.501 -42s58.167 -44.333 79.5 -69
c26 -28 45 -54 57 -78l18 -36l-184 2l-12 27c-8 18 -19.333 37.667 -34 59c-14 20.667 -31 39.834 -51 57.501s-42.333 27.167 -67 28.5c-34 -13.333 -66 -37.666 -96 -72.999s-52.333 -73 -67 -113c-4.66699 -12.667 -8.16699 -25.334 -10.5 -38.001s-3.5 -25 -3.5 -37
v-1.5v-1.5c14.667 6 31.167 10.167 49.5 12.5s36.833 3.5 55.5 3.5c20 0 39.333 -0.833008 58 -2.5s35.334 -3.5 50.001 -5.5c14 -2 25.167 -3.83301 33.5 -5.5l12.5 -2.5v-66c-8 4.66699 -22 8.66699 -42 12s-44 5 -72 5c-21.333 0 -45 -1.16699 -71 -3.5
s-53.333 -6.83301 -82 -13.5v-4v-4c-0.666992 -2 -1 -3.66699 -1 -5v-4c0 -16 1 -32.5 3 -49.5s5 -34.5 9 -52.5c3.33301 -18.667 7.5 -37 12.5 -55s10.167 -35.333 15.5 -52c9.33301 -32 18.166 -58.667 26.499 -80l12.5 -32l-133 -4c-22 30 -40.833 60.667 -56.5 92
s-28.5 63 -38.5 95c-8.66699 25.333 -15 51 -19 77s-6 51.333 -6 76c-0.666992 82 21.5 157 66.5 225s114.167 119.333 207.5 154v0z" />
    <glyph glyph-name="H" unicode="G" horiz-adv-x="848" 
d="M357 723c0.666992 -0.666992 1.83203 -0.99707 3.49902 -0.99707h6.5h8.5c3 0 6.5 0.333008 10.5 1h13h14c9.33301 0 19.5 -0.333008 30.5 -1s22.167 -1.66699 33.5 -3c14.667 -2 33.5 -7.16699 56.5 -15.5s47.167 -19.5 72.5 -33.5c36 -20 69.333 -45 100 -75
s48.667 -63.667 54 -101h-178c-1.33301 6 -2.83301 12 -4.5 18s-3.83398 12 -6.50098 18c-10.667 26 -26.667 50.833 -48 74.5s-43.666 41.5 -66.999 53.5c-6.66699 3.33301 -13.667 6 -21 8s-14.333 3.33301 -21 4c-60.667 -29.333 -105.334 -69.833 -134.001 -121.5
s-44.334 -105.834 -47.001 -162.501c-0.666992 -4 -1 -7.83301 -1 -11.5v-10.5c0 -71.333 17 -137 51 -197s78.333 -96.667 133 -110c8 0.666992 16.333 3 25 7s17.334 9.33301 26.001 16c14.667 11.333 29.334 25.666 44.001 42.999s27.667 35 39 53
c10.667 18.667 19.5 36.5 26.5 53.5s10.5 31.167 10.5 42.5c0 3.33301 -0.166992 6.16602 -0.5 8.49902s-1.16602 4.5 -2.49902 6.5l-10 2c-3.33301 0.666992 -6.66602 1 -9.99902 1c-3.33301 0.666992 -6.66602 1 -9.99902 1h-10c-12.667 0 -25 -1 -37 -3
s-23.333 -4 -34 -6s-20 -4 -28 -6s-14.667 -3 -20 -3h-1.5h-1.5v63c1.33301 1.33301 3 2.5 5 3.5s4.66699 1.83301 8 2.5c16 6 41.167 11.333 75.5 16s70.833 7 109.5 7h5.5h4.5c28.667 -0.666992 56.5 -2.83398 83.5 -6.50098s50.833 -9.83398 71.5 -18.501
c0.666992 -3.33301 1 -6.83301 1 -10.5v-10.5c0 -66.667 -28.167 -129.167 -84.5 -187.5s-134.5 -101.5 -234.5 -129.5c-4 -0.666992 -7.83301 -1.16699 -11.5 -1.5s-7.16699 -0.833008 -10.5 -1.5c-4.66699 -0.666992 -9.5 -1.16699 -14.5 -1.5s-10.167 -0.5 -15.5 -0.5
c-8.66699 0 -17.834 0.333008 -27.501 1s-20.834 1.33398 -33.501 2.00098c-104 23.333 -182.667 68.833 -236 136.5s-80 139.834 -80 216.501v4.5v5.5c2 74.667 29.333 145.667 82 213s131.667 116.333 237 147v0z" />
    <glyph glyph-name="I" unicode="H" horiz-adv-x="848" 
d="M184 730l138.001 -5c-12 -18 -23 -37 -33 -57s-19 -40 -27 -60c-12.667 -33.333 -22.667 -66.166 -30 -98.499s-11 -61.166 -11 -86.499c0 -4.66699 0.166992 -9.33398 0.5 -14.001s0.833008 -9.33398 1.5 -14.001c22.667 7.33301 46.667 12.5 72 15.5s51.333 4.5 78 4.5
c10.667 0 21.5 -0.166992 32.5 -0.5s21.833 -0.833008 32.5 -1.5c27.333 -2 54.333 -5 81 -9s52.334 -8.33301 77.001 -13c0.666992 5.33301 1.16699 10.5 1.5 15.5s0.5 10.167 0.5 15.5c0 37.333 -5.16699 75 -15.5 113s-21.5 76 -33.5 114l-12 39.5l-12 38.5
c6.66699 0 13.334 0.166992 20.001 0.5s13.334 0.5 20.001 0.5c6 0.666992 12.333 1 19 1h20h12.5c4.33301 0 8.5 0.333008 12.5 1h12.5h12.5c42 -46 73.833 -100 95.5 -162s32.5 -125.667 32.5 -191v-10v-10c-2.66699 -64.667 -16 -127.834 -40 -189.501
s-59.667 -116.167 -107 -163.5c-2 0 -3.83301 0.166992 -5.5 0.5s-3.5 0.5 -5.5 0.5s-3.83301 0.166992 -5.5 0.5s-3.5 0.5 -5.5 0.5c-6.66699 0 -13.334 -0.166992 -20.001 -0.5s-13.334 -0.833008 -20.001 -1.5c-0.666992 -0.666992 -1.66699 -1 -3 -1h-3l-23.5 -2
c-7.66699 -0.666992 -15.167 -1 -22.5 -1c-4.66699 0 -9.5 0.166992 -14.5 0.5s-9.83301 0.833008 -14.5 1.5c6 17.333 13.167 35.166 21.5 53.499l26.5 57.5l16 36.5c5.33301 12.333 10.333 24.5 15 36.5c8.66699 21.333 15.667 42.333 21 63s8 41 8 61v0.5v1.5v1.5v0.5
c-14.667 10 -39.667 18 -75 24s-72.666 9 -111.999 9h-3.5h-3.5c-34 0 -67 -2.83301 -99 -8.5s-58 -14.167 -78 -25.5v-4.5v-4.5c-0.666992 -2 -1 -3.83301 -1 -5.5v-4.5c0 -20 1.66699 -40.667 5 -62s7.66602 -42.666 12.999 -63.999
c8 -29.333 17.833 -58.166 29.5 -86.499s24.5 -54.833 38.5 -79.5h-140c-43.333 44 -75.333 93.167 -96 147.5s-32.667 109.833 -36 166.5c-0.666992 6 -1 11.833 -1 17.5v16.5c-0.666992 78 12.666 151.667 39.999 221s61.666 122.333 102.999 159v0z" />
    <glyph glyph-name="J" unicode="I" horiz-adv-x="338" 
d="M51 721l105.001 0.000976562h104c-11.333 -60.667 -19.833 -120.334 -25.5 -179.001s-8.83398 -117.334 -9.50098 -176.001c0 -60.667 3 -121.5 9 -182.5s14.667 -122.5 26 -184.5h-10.5h-10.5c-3.33301 0.666992 -6.83301 1 -10.5 1h-10.5h-28.5
c-9.66699 0 -19.167 -0.333008 -28.5 -1h-4h-3c-18 0 -36 -0.166992 -54 -0.5s-35.667 -0.166016 -53 0.500977c11.333 57.333 20.833 116.666 28.5 177.999s12.167 123.333 13.5 186v17v17c0 56 -3 111.333 -9 166s-15.667 107.334 -29 158.001v0z" />
    <glyph glyph-name="K" unicode="J" horiz-adv-x="656" 
d="M342 719l2.99707 0.00488281h6c6.66699 0 15.667 0.166992 27 0.5s23 0.5 35 0.5c2.66699 0.666992 5.33398 1 8.00098 1h8c14.667 0.666992 27.5 1.16699 38.5 1.5l16.5 0.5c34.667 -52 62.334 -107.333 83.001 -166s33 -118 37 -178c0 -6 0.166992 -12 0.5 -18
s0.5 -12 0.5 -18v-7.5v-7.5c-0.666992 -2.66699 -1 -5.16699 -1 -7.5v-7.5c-6 -94 -29 -162.5 -69 -205.5s-101 -78.167 -183 -105.5h-18c-6 0 -12 0.333008 -18 1h-6h-6h-12h-12h-19.5c-6.33301 0 -13.166 -0.333008 -20.499 -1c-8 2.66699 -16 5.5 -24 8.5
s-16 5.83301 -24 8.5c-42 15.333 -80.333 36.666 -115 63.999s-52 71.666 -52 132.999v6v7h47h46h40h41l-2 -18c-0.666992 -6 -1 -12 -1 -18c0 -30.667 8 -57.334 24 -80.001s43 -38.334 81 -47.001c41.333 29.333 69.833 67 85.5 113s23.5 96.333 23.5 151
c0 27.333 -1.5 55.166 -4.5 83.499s-7.16699 56.833 -12.5 85.5c-5.33301 30 -11.5 60 -18.5 90s-14.167 59 -21.5 87c-2 7.33301 -3.83301 14.5 -5.5 21.5s-3.5 14.167 -5.5 21.5v0z" />
    <glyph glyph-name="L" unicode="K" horiz-adv-x="734" 
d="M309 721l-13.4971 -30.001l-13.5 -31l-30 -72c-10 -24.667 -18.667 -49.334 -26 -74.001c-6.66699 -23.333 -12.167 -46.333 -16.5 -69s-6.5 -45 -6.5 -67v-2.5v-2.5v-3v-3c82.667 17.333 151.167 60.5 205.5 129.5s96.166 143.167 125.499 222.5
c0 0.666992 0.166992 1.33398 0.5 2.00098s0.5 1.33398 0.5 2.00098c6.66699 0 13.5 -0.166992 20.5 -0.5s13.833 -0.5 20.5 -0.5c20.667 -0.666992 41.334 -1 62.001 -1h61c-13.333 -63.333 -35.833 -121 -67.5 -173s-72.167 -96.667 -121.5 -134
c75.333 -58.667 125.333 -122.5 150 -191.5s38.334 -141.167 41.001 -216.5c-5.33301 0.666992 -10.833 1 -16.5 1h-16.5h-11.5h-11.5c-11.333 0 -22.833 -0.166992 -34.5 -0.5s-23.834 -0.833008 -36.501 -1.5h-10c-3.33301 0 -6.33301 0.333008 -9 1h-10h-10
c2 10.667 3.5 21.5 4.5 32.5s1.5 21.833 1.5 32.5c0 6 -0.166992 12.167 -0.5 18.5s-0.833008 12.5 -1.5 18.5c-4 47.333 -14.833 94 -32.5 140s-36.834 88.333 -57.501 127c-22.667 -14.667 -48 -28 -76 -40s-56.333 -20.667 -85 -26c-10 -2 -20 -3.66699 -30 -5
s-20 -2 -30 -2h-4.5c-1.66699 0 -3.16699 0.333008 -4.5 1h-5.5h-4.5c0 -2.66699 -0.166992 -5.5 -0.5 -8.5s-0.5 -5.83301 -0.5 -8.5c-0.666992 -2.66699 -1 -5.5 -1 -8.5v-8.5c0 -24 2.16699 -47.5 6.5 -70.5s9.5 -45.833 15.5 -68.5
c2 -8.66699 4.16699 -17.167 6.5 -25.5s4.83301 -16.833 7.5 -25.5l10 -36c3.33301 -12 6.33301 -24.333 9 -37c-10 0 -20 -0.166992 -30 -0.5s-20 -0.833008 -30 -1.5c-10.667 -0.666992 -21 -1.16699 -31 -1.5s-20 -0.5 -30 -0.5
c-38.667 53.333 -67.334 107.5 -86.001 162.5s-28 110.5 -28 166.5c0 32.667 3.16699 65.5 9.5 98.5s15.5 66.167 27.5 99.5c12.667 33.333 28.167 66.5 46.5 99.5s39.5 65.833 63.5 98.5l33 -2l35 -2h11h11c8 -0.666992 15.667 -1 23 -1s14.666 -0.333008 21.999 -1v0z" />
    <glyph glyph-name="M" unicode="L" horiz-adv-x="734" 
d="M316 723c-17.333 -41.333 -32.165 -83.6631 -44.498 -126.996s-21.833 -86.666 -28.5 -129.999c-3.33301 -22 -5.83301 -43.833 -7.5 -65.5s-2.5 -43.167 -2.5 -64.5c0 -33.333 2 -66.333 6 -99s10.333 -64.667 19 -96l4 -4c1.33301 -1.33301 3 -2.66602 5 -3.99902
c7.33301 -6.66699 16 -13.334 26 -20.001s20.333 -13 31 -19c13.333 -7.33301 26.166 -13.333 38.499 -18s22.5 -7.33398 30.5 -8.00098h0.5h0.5h0.5h0.5c19.333 0 43.666 7.16699 72.999 21.5s60 32.166 92 53.499l31 22l31 22l28 21.5c9.33301 7 18 13.833 26 20.5
c2.66699 -13.333 4.5 -27 5.5 -41s1.5 -28 1.5 -42c0 -13.333 -0.333008 -26.666 -1 -39.999l-2 -40c-0.666992 -4 -1.16699 -8.16699 -1.5 -12.5s-0.5 -8.5 -0.5 -12.5c-42 -18.667 -86.667 -31.834 -134 -39.501s-95.666 -11.5 -144.999 -11.5h-12h-13
c-36.667 1.33301 -73.167 4.16602 -109.5 8.49902s-71.166 10.166 -104.499 17.499c-38.667 48 -68 98.167 -88 150.5s-31.333 105.166 -34 158.499c-0.666992 4.66699 -1 9 -1 13v12c0 65.333 12 129.5 36 192.5s58.333 122.5 103 178.5h6.5h7.5
c2 -0.666992 4.16699 -1 6.5 -1h6.5c9.33301 0 18.833 0.166992 28.5 0.5s19.167 0.833008 28.5 1.5c9.33301 0 18.666 0.166992 27.999 0.5s18.666 0.5 27.999 0.5v0z" />
    <glyph glyph-name="N" unicode="M" horiz-adv-x="1018" 
d="M314 723c49.333 -50 91.4961 -102.329 126.496 -156.996s58.833 -112.334 71.5 -173.001c18 59.333 38 111.166 60 155.499s49.333 87.166 82 128.499l20 24l21 24c24.667 -0.666992 49.167 -1.5 73.5 -2.5s48.833 -2.16699 73.5 -3.5
c43.333 -54.667 76.333 -112 99 -172s34 -120.667 34 -182c0.666992 -62.667 -11.166 -124.834 -35.499 -186.501s-62.166 -121.167 -113.499 -178.5c-10 0.666992 -20 1.16699 -30 1.5s-20 0.833008 -30 1.5s-20.167 1.16699 -30.5 1.5s-20.5 0.833008 -30.5 1.5
c24 44 43.333 91.5 58 142.5s23.667 102.833 27 155.5c0 7.33301 0.166992 14.5 0.5 21.5s0.5 14.167 0.5 21.5c0 36.667 -2.83301 72.667 -8.5 108s-15.167 69.333 -28.5 102c-52.667 -46.667 -98.834 -103.167 -138.501 -169.5s-74.167 -138.166 -103.5 -215.499
l-8.5 16.5l-8.5 16.5c-5.33301 10 -10.5 20.333 -15.5 31l-14.5 31c-24 49.333 -50.5 96.666 -79.5 141.999s-71.5 85.333 -127.5 120c-8.66699 -26.667 -15 -54.334 -19 -83.001s-6 -58 -6 -88c0 -10.667 0.333008 -21.334 1 -32.001l2 -32
c4.66699 -51.333 15.334 -101.833 32.001 -151.5s38.667 -95.167 66 -136.5c-11.333 -0.666992 -22.666 -1.16699 -33.999 -1.5s-22.333 -0.5 -33 -0.5c-11.333 0 -22.666 -0.166992 -33.999 -0.5s-22.666 -0.833008 -33.999 -1.5c-52.667 45.333 -92 99.5 -118 162.5
s-39 128.167 -39 195.5v17.5c0 5.66699 0.333008 11.5 1 17.5c3.33301 58.667 16.166 116.334 38.499 173.001s53.833 108.334 94.5 155.001h70h68v0z" />
    <glyph glyph-name="O" unicode="N" horiz-adv-x="781" 
d="M158 725c-44 -44.667 -77.502 -96.998 -100.502 -156.998s-34.5 -122.667 -34.5 -188c0 -20 1.16699 -40 3.5 -60s5.5 -40 9.5 -60c10 -44.667 26 -89.334 48 -134.001s50 -87 84 -127h67.5h67.5c-16.667 35.333 -32.667 72.833 -48 112.5s-28.333 79.834 -39 120.501
c-7.33301 28 -13 55.667 -17 83s-6 54 -6 80c0 27.333 2.5 53.333 7.5 78s13.167 48 24.5 70c54 -32 98.5 -76.5 133.5 -133.5s62.5 -116.5 82.5 -178.5c13.333 -41.333 23.333 -82 30 -122s11 -76.333 13 -109h8h9h8h8h21.5h21.5c6.66699 0 13.667 0.166992 21 0.5
s14.333 0.5 21 0.5h7.5h7.5c2 0 4.16699 -0.166992 6.5 -0.5s4.83301 -0.5 7.5 -0.5c35.333 75.333 63.5 145.166 84.5 209.499s31.5 126.166 31.5 185.499c0 30 -3 59.667 -9 89s-15.667 58.666 -29 87.999c-11.333 24.667 -25.5 49.667 -42.5 75
s-36.833 50.666 -59.5 75.999h-68h-70c36 -56.667 60.833 -112.834 74.5 -168.501s20.5 -108.5 20.5 -158.5c0 -40.667 -3.16699 -79.167 -9.5 -115.5s-14.166 -69.166 -23.499 -98.499c-17.333 114.667 -41.666 211.834 -72.999 291.501s-78.333 155.834 -141 228.501
l-10 11.5l-10 11.5h-10.5h-25.5c-5.33301 -0.666992 -10.833 -1 -16.5 -1h-17.5h-48c-14.667 0 -21.667 0.333008 -21 1v0z" />
    <glyph glyph-name="P" unicode="O" horiz-adv-x="824" 
d="M330 721c20.667 -0.666992 41.6699 -1.16797 63.0029 -1.50098s42.666 -0.5 63.999 -0.5h21.5h21.5c94.667 -28.667 164.5 -76.834 209.5 -144.501s67.5 -140.167 67.5 -217.5c0 -72.667 -25 -141 -75 -205s-105.333 -109.667 -166 -137
c-8.66699 -4.66699 -17.334 -8.33398 -26.001 -11.001s-17.334 -5 -26.001 -7h-76.5h-79.5c-9.33301 2 -18.666 4.83301 -27.999 8.5s-18.666 7.83398 -27.999 12.501c-56.667 28 -109.334 70.667 -158.001 128s-76.667 117.666 -84 180.999
c0 4 -0.166992 8.16699 -0.5 12.5s-0.5 8.5 -0.5 12.5c0 6.66699 0.166992 13.334 0.5 20.001s1.16602 13.667 2.49902 21c9.33301 72.667 41 140.834 95 204.501s121.667 104.834 203 123.501v0zM402.003 688.999c-28.667 -16.667 -55.334 -40.335 -80.001 -71.002
s-45.667 -62.667 -63 -96c-14.667 -28 -26.167 -55.333 -34.5 -82s-12.833 -49 -13.5 -67v-1.5v-0.5c0 -16 3.83301 -37.667 11.5 -65s18.834 -56 33.501 -86c17.333 -35.333 39 -68.666 65 -99.999s55.667 -53 89 -65c60 27.333 105.333 70 136 128s46.667 119 48 183v2.5
v2.5c0 66.667 -16 129.834 -48 189.501s-80 102.5 -144 128.5v0z" />
    <glyph glyph-name="Q" unicode="P" horiz-adv-x="699" 
d="M158 723l72.501 -0.000976562h70.5h47.5h47.5c2 -0.666992 4 -1.16699 6 -1.5s3.66699 -0.833008 5 -1.5c68 -18 130.167 -45.833 186.5 -83.5s84.5 -81.167 84.5 -130.5c0 -12.667 -3 -26 -9 -40s-14.333 -28.333 -25 -43c-28 -39.333 -70.5 -75.166 -127.5 -107.499
s-118.833 -48.5 -185.5 -48.5c-10 0 -20.167 0.5 -30.5 1.5s-20.833 2.5 -31.5 4.5s-21.167 4.5 -31.5 7.5s-20.5 6.5 -30.5 10.5c6 -36 14.167 -69 24.5 -99s21.166 -59.333 32.499 -88c0.666992 -0.666992 1.16699 -1.66699 1.5 -3s0.833008 -2.33301 1.5 -3l17.5 -46.5
l16.5 -47.5h-64.5h-64.5c-42.667 52 -76.667 107.667 -102 167s-40.333 119.333 -45 180c0 6 -0.166992 12 -0.5 18s-0.5 12 -0.5 18c0 59.333 10.667 117.5 32 174.5s55.333 110.833 102 161.5v0zM281.001 667.999c-24.667 -38.667 -43.335 -82.334 -56.002 -131.001
s-19 -98.667 -19 -150v-21.5c0 -7 0.333008 -14.167 1 -21.5c14.667 1.33301 30.334 3.83301 47.001 7.5s33.334 8.16699 50.001 13.5c38 13.333 74 30.5 108 51.5s57 42.833 69 65.5c2 4 3.5 7.83301 4.5 11.5s1.83301 7.16699 2.5 10.5v1.5v1.5
c0 8.66699 -3.83301 19.334 -11.5 32.001s-18.167 25.667 -31.5 39c-18 17.333 -39.667 34 -65 50s-51.333 27.667 -78 35c-4 1.33301 -7.66699 2.33301 -11 3l-10 2v0z" />
    <glyph glyph-name="R" unicode="Q" horiz-adv-x="813" 
d="M379 721c91.333 -2 170.503 -33.501 237.503 -94.501s107.167 -128.167 120.5 -201.5c2 -8 3.33301 -15.833 4 -23.5s1 -15.5 1 -23.5v-3.5v-3.5c0 -10.667 -0.833008 -21.834 -2.5 -33.501s-3.83398 -23.167 -6.50098 -34.5c-4.66699 -20 -10.834 -39.667 -18.501 -59
s-15.834 -37.333 -24.501 -54c-5.33301 -12 -10.833 -23 -16.5 -33s-10.834 -18.667 -15.501 -26l12 -8c4 -2.66699 8.33301 -5.33398 13 -8.00098c24.667 -17.333 48.334 -37.333 71.001 -60s41 -46.667 55 -72c-12.667 -0.666992 -25.334 -1.16699 -38.001 -1.5
s-25 -0.5 -37 -0.5h-38h-38c-0.666992 18.667 -4.66699 36.334 -12 53.001s-21 31.334 -41 44.001c-22 -18.667 -47.333 -34 -76 -46s-58.334 -21 -89.001 -27c-11.333 -2 -22.666 -3.5 -33.999 -4.5s-22.333 -1.5 -33 -1.5c-92.667 -1.33301 -174 32.5 -244 101.5
s-106.333 159.167 -109 270.5v1.5v1.5v0.5v1.5c0 8.66699 0.5 17.667 1.5 27s2.83301 18.333 5.5 27c14.667 64 50.167 123.833 106.5 179.5s117.166 90.834 182.499 105.501c8.66699 2 17.334 3.5 26.001 4.5s17.334 1.5 26.001 1.5h3h3h2.5h2.5v0zM383.003 663.999
c-35.333 -17.333 -65.8311 -39.165 -91.498 -65.498s-46.5 -53.833 -62.5 -82.5c-13.333 -24.667 -23.5 -48.667 -30.5 -72s-10.5 -43.666 -10.5 -60.999v-2.5c0 -1 0.333008 -2.16699 1 -3.5v-2.5v-3.5v-1.5v-1.5c0 -17.333 3 -36.666 9 -57.999s14 -43 24 -65
c13.333 -28 28.833 -55.167 46.5 -81.5s35.834 -48.5 54.501 -66.5c9.33301 -8.66699 18.833 -16 28.5 -22s18.834 -10 27.501 -12c31.333 7.33301 60.666 28.666 87.999 63.999s49.666 73.666 66.999 114.999c10 23.333 17.833 46.333 23.5 69s8.5 42.667 8.5 60
c0 16.667 -2.83301 36.167 -8.5 58.5s-13.834 45.166 -24.501 68.499c-16 34.667 -36.833 67.667 -62.5 99s-54.834 53.666 -87.501 66.999v0z" />
    <glyph glyph-name="S" unicode="R" horiz-adv-x="689" 
d="M414 727c37.333 -12.667 71.8311 -30.0059 103.498 -52.0059s57.834 -45 78.501 -69c15.333 -17.333 27.333 -34.166 36 -50.499s13 -31.166 13 -44.499v-1.5v-1.5c-2.66699 -35.333 -16.834 -67.666 -42.501 -96.999s-53.5 -53.666 -83.5 -72.999l-11.5 -7.5
c-3.66699 -2.33301 -7.5 -4.5 -11.5 -6.5c36 -32 68.333 -68.5 97 -109.5s48.334 -82.833 59.001 -125.5c2 -9.33301 3.66699 -18.833 5 -28.5s2 -19.167 2 -28.5c0 -6 -0.166992 -12 -0.5 -18s-1.16602 -11.667 -2.49902 -17c-12 0.666992 -24.167 1.16699 -36.5 1.5
s-24.833 0.5 -37.5 0.5h-37.5h-36.5c3.33301 11.333 5.83301 23 7.5 35s2.5 23.667 2.5 35c0 42.667 -9 83 -27 121s-40.333 70.333 -67 97c-18.667 -3.33301 -38 -6 -58 -8s-40.333 -3 -61 -3c-15.333 0 -30.833 0.5 -46.5 1.5s-31.5 2.83301 -47.5 5.5
c2.66699 -17.333 5.66699 -35.166 9 -53.499s7.66602 -36.5 12.999 -54.5c8 -30.667 18.167 -61 30.5 -91s28.166 -58.333 47.499 -85h-40h-42c-9.33301 -0.666992 -18.5 -1 -27.5 -1s-18.167 -0.333008 -27.5 -1c-42.667 49.333 -75.667 106.833 -99 172.5
s-35.666 132.834 -36.999 201.501v5.5v5.5c0 63.333 9.83301 125 29.5 185s49.834 113.333 90.501 160h42.5h42.5c4.66699 0 9 0.166992 13 0.5s8 0.5 12 0.5h74c24.667 0 48.667 -0.333008 72 -1v0zM274.998 679.994c-18 -31.333 -32.835 -66.3301 -44.502 -104.997
s-19.167 -78 -22.5 -118c-0.666992 -7.33301 -1.16699 -15 -1.5 -23s-0.5 -15.667 -0.5 -23c0 -11.333 0.5 -22.833 1.5 -34.5s2.16699 -23.167 3.5 -34.5c40.667 7.33301 78.834 19.166 114.501 35.499s65.167 33.5 88.5 51.5c17.333 13.333 31 26.166 41 38.499
s15.333 23.166 16 32.499c-0.666992 10 -4.83398 22.333 -12.501 37s-18.167 29.667 -31.5 45c-17.333 20.667 -39.166 40.167 -65.499 58.5s-55.166 31.5 -86.499 39.5v0z" />
    <glyph glyph-name="T" unicode="S" horiz-adv-x="758" 
d="M373 719l2 -0.00488281h2h1h2h2h2c56.667 -0.666992 110.834 -16.667 162.501 -48s90.5 -65.666 116.5 -102.999c4.66699 -6.66699 8.66699 -13.167 12 -19.5s6.33301 -12.833 9 -19.5c-23.333 -8.66699 -47.333 -14.334 -72 -17.001s-51.667 -4 -81 -4l-16 20.5
l-16 21.5c-18.667 23.333 -39.167 45.666 -61.5 66.999s-47.166 38.333 -74.499 51c-42 -29.333 -76.5 -62.833 -103.5 -100.5s-47.167 -80.5 -60.5 -128.5c69.333 -2 134.666 -5.66699 195.999 -11s121.666 -14.666 180.999 -27.999
c23.333 -5.33301 46.666 -11.333 69.999 -18s47 -14.334 71 -23.001c0.666992 -5.33301 1 -10.5 1 -15.5v-15.5c0 -78.667 -20.333 -140.834 -61 -186.501s-85.334 -79.5 -134.001 -101.5c-32 -14 -62.833 -23.833 -92.5 -29.5s-53.5 -8.5 -71.5 -8.5h-2.5h-2.5
c-62.667 1.33301 -123 21.333 -181 60s-105.333 97.334 -142 176.001c14.667 0.666992 29.334 1.16699 44.001 1.5s29.334 0.5 44.001 0.5h44h44c2 -4 3.83301 -7.83301 5.5 -11.5s3.5 -7.5 5.5 -11.5c16 -34.667 34.833 -66.167 56.5 -94.5s55.834 -50.833 102.501 -67.5
c1.33301 0.666992 2.5 1.33398 3.5 2.00098s2.16699 1.33398 3.5 2.00098c34.667 18.667 67 44.5 97 77.5s48 72.167 54 117.5l-46 17.5l-46 16.5c-64.667 22.667 -130.834 41.334 -198.501 56.001s-143.167 24.334 -226.5 29.001c11.333 100.667 43 176.834 95 228.501
s108 85.834 168 102.501c16 4.66699 31.667 8.16699 47 10.5s30.333 3.83301 45 4.5v0z" />
    <glyph glyph-name="U" unicode="T" horiz-adv-x="723" 
d="M25 678c70 16 135.333 28.0029 196 36.0029s118 12 172 12c56.667 0 110.667 -4 162 -12s102 -20 152 -36h-4v-8c0 -2.66699 0.333008 -5.33398 1 -8.00098v-9v-8v-24c0 -8 -0.333008 -16 -1 -24v-2.5v-3.5c0 -14.667 -0.166992 -29.334 -0.5 -44.001
s-0.166016 -29 0.500977 -43c-36.667 21.333 -75 41.666 -115 60.999s-85.667 35.333 -137 48c-3.33301 -34.667 -6.5 -74 -9.5 -118s-4.5 -90 -4.5 -138c0 -16 0.166992 -32 0.5 -48s0.833008 -32 1.5 -48c2 -46.667 6.16699 -92.667 12.5 -138s15.5 -87.333 27.5 -126h-47
h-48h-63.5h-62.5c9.33301 66 17.666 133 24.999 201s11.333 136.333 12 205c0 35.333 -1.33301 70.5 -4 105.5s-6.66699 69.833 -12 104.5c-30 -5.33301 -59.333 -13.666 -88 -24.999s-57 -24.333 -85 -39c-14 -6.66699 -28 -13.834 -42 -21.501l-43 -23.5v4.5v4.5
c0 11.333 0.166992 23 0.5 35s0.833008 24 1.5 36v3v3c0.666992 11.333 1.16699 22.5 1.5 33.5s0.5 21.833 0.5 32.5v11.5v10.5v0z" />
    <glyph glyph-name="V" unicode="U" horiz-adv-x="836" 
d="M291 721c-18.667 -33.333 -33.6709 -68.834 -45.0039 -106.501s-19.666 -75.5 -24.999 -113.5c-1.33301 -13.333 -2.5 -26.333 -3.5 -39s-1.5 -25.334 -1.5 -38.001c0 -84.667 17.333 -161.5 52 -230.5s87.334 -113.167 158.001 -132.5
c59.333 24.667 104.333 69.334 135 134.001s46 136 46 214c0 13.333 -0.5 26.833 -1.5 40.5s-2.16699 27.167 -3.5 40.5c-6 40.667 -16 81 -30 121s-32.667 77.333 -56 112l132 -2c41.333 -56.667 77.166 -114.167 107.499 -172.5s44.833 -118.833 43.5 -181.5
c-0.666992 -8 -1.5 -16 -2.5 -24s-2.5 -16 -4.5 -24c-16 -72 -55.5 -139.333 -118.5 -202s-130.5 -100.667 -202.5 -114c-8 -2 -15.667 -3.16699 -23 -3.5s-14.666 -0.5 -21.999 -0.5c-10.667 0 -21.667 0.333008 -33 1s-22.666 2.33398 -33.999 5.00098
c-81.333 16 -156.333 57.5 -225 124.5s-105.667 146.167 -111 237.5v4v5v4v4c0 9.33301 0.333008 18.5 1 27.5s1.66699 17.833 3 26.5c8 50 24.833 99.167 50.5 147.5s53.834 93.5 84.501 135.5h129v0z" />
    <glyph glyph-name="W" unicode="V" horiz-adv-x="813" 
d="M219 725l0.000976562 -10.498v-10.5c0 -10.667 0.166992 -21.334 0.5 -32.001s0.833008 -21.334 1.5 -32.001c6.66699 -97.333 28.667 -191.833 66 -283.5s86.333 -169.5 147 -233.5c81.333 87.333 130.333 180.833 147 280.5s25.334 206.167 26.001 319.5h88.5h87.5
c1.33301 -9.33301 2.16602 -18.833 2.49902 -28.5s0.5 -19.167 0.5 -28.5c0 -18.667 -0.833008 -37.334 -2.5 -56.001s-3.83398 -37.334 -6.50098 -56.001c-17.333 -112.667 -54.5 -219.5 -111.5 -320.5s-117.833 -172.5 -182.5 -214.5c-8.66699 -5.33301 -17 -10 -25 -14
s-16 -7.33301 -24 -10c-103.333 48.667 -193.333 141.834 -270 279.501s-119 287.834 -127 450.501h30.5h30.5c4.66699 0.666992 9.5 1 14.5 1h15.5h45.5c15 0 30.167 -0.333008 45.5 -1v0z" />
    <glyph glyph-name="X" unicode="W" horiz-adv-x="1006" 
d="M213 727l-0.00195312 -4.49609v-4.5v-5.5v-4.5v-14c0 -4.66699 0.333008 -9.33398 1 -14.001c0 -12 0.166992 -24.333 0.5 -37s0.5 -25.334 0.5 -38.001c2.66699 -81.333 10.834 -160.833 24.501 -238.5s45.167 -145.167 94.5 -202.5c44 60.667 79 126.5 105 197.5
s46.667 142.833 62 215.5c1.33301 5.33301 2.5 10.666 3.5 15.999s2.16699 10.666 3.5 15.999c2.66699 -17.333 5.66699 -35 9 -53s7 -36 11 -54c14.667 -66 33.667 -129.5 57 -190.5s54.333 -110.167 93 -147.5c35.333 48.667 63.166 118.834 83.499 210.501
s30.5 187.834 30.5 288.501v16v16c0 5.33301 -0.166992 10.666 -0.5 15.999s-0.5 10.666 -0.5 15.999c14.667 0.666992 29.334 1 44.001 1h44h14.5c5 0 9.83301 -0.333008 14.5 -1h29.5h29.5c1.33301 -8.66699 2.33301 -17.5 3 -26.5s1 -18.167 1 -27.5
c0.666992 -4.66699 1 -9.16699 1 -13.5v-13.5c0 -23.333 -1 -46.833 -3 -70.5s-5 -47.5 -9 -71.5c-18.667 -110.667 -55 -214.834 -109 -312.501s-115.667 -163.167 -185 -196.5c-36 29.333 -65.167 63.833 -87.5 103.5s-41.166 80.5 -56.499 122.5l-7.5 19.5
c-2.33301 6.33301 -4.5 12.833 -6.5 19.5c-2.66699 -6 -5.5 -11.833 -8.5 -17.5s-5.83301 -11.5 -8.5 -17.5l-11.5 -24c-3.66699 -8 -7.16699 -16.333 -10.5 -25c-14 -32 -29.167 -63.333 -45.5 -94s-37.166 -59.667 -62.499 -87
c-96.667 46 -172.834 123.833 -228.501 233.5s-87.834 225.834 -96.501 348.501c-1.33301 10.667 -2.16602 21.5 -2.49902 32.5s-0.5 21.833 -0.5 32.5c0 14.667 0.333008 29 1 43s1.66699 28 3 42h89.5h86.5v0z" />
    <glyph glyph-name="Y" unicode="X" horiz-adv-x="813" 
d="M37 723c-0.666992 -4.66699 -1.16992 -9.49805 -1.50293 -14.498s-0.5 -9.83301 -0.5 -14.5c0 -6 0.166992 -11.833 0.5 -17.5s1.16602 -11.5 2.49902 -17.5c9.33301 -56.667 37 -109.834 83 -159.501s95.667 -82.834 149 -99.501c-70 -28 -123.667 -70 -161 -126
s-60.666 -115 -69.999 -177c-1.33301 -11.333 -2.5 -22.833 -3.5 -34.5s-1.5 -23.167 -1.5 -34.5v-6.5v-7.5c0 -2.66699 0.166992 -5.16699 0.5 -7.5s0.5 -4.5 0.5 -6.5h46h46h46h46c-2 10 -3.5 20 -4.5 30s-1.5 20 -1.5 30c0.666992 64 19.334 121.333 56.001 172
s81.667 91.667 135 123c51.333 -32 91.333 -72.167 120 -120.5s48.334 -97.833 59.001 -148.5c3.33301 -14.667 5.83301 -29 7.5 -43s2.83398 -27.667 3.50098 -41h47h44h41.5h43.5c0 10 -0.333008 19.833 -1 29.5s-1.66699 19.5 -3 29.5
c-10 68.667 -36.333 134.5 -79 197.5s-98 110.167 -166 141.5c63.333 31.333 117.5 72.5 162.5 123.5s74.833 116.833 89.5 197.5c-14 0.666992 -28.5 1 -43.5 1h-45.5h-16c-5.33301 0 -10.333 -0.333008 -15 -1h-30h-29c-14 -58.667 -38 -114.167 -72 -166.5
s-74 -91.166 -120 -116.499c-48.667 21.333 -87.167 51.166 -115.5 89.499s-47.5 78.5 -57.5 120.5c-2.66699 12 -4.66699 23.833 -6 35.5s-2 23.167 -2 34.5v1.5v1.5v0.5v1.5h-13.5h-34.5c-6.66699 -0.666992 -13.667 -1 -21 -1h-23h-63c-19.333 0 -29 0.333008 -29 1v0z
" />
    <glyph glyph-name="Z" unicode="Y" horiz-adv-x="746" 
d="M189 721c0.666992 -12 1.99805 -24.333 3.99805 -37s4.33301 -25.334 7 -38.001c12 -58 33.167 -112.833 63.5 -164.5s68.166 -87.167 113.499 -106.5c42.667 27.333 81.167 69.833 115.5 127.5s51.5 119.5 51.5 185.5v8v8c0 2 -0.166992 4.33301 -0.5 7
s-0.5 5.33398 -0.5 8.00098c15.333 0 30.833 0.166992 46.5 0.5s31.167 0.833008 46.5 1.5s30.833 1.16699 46.5 1.5s31.167 0.5 46.5 0.5v-6.5v-7.5c0 -12.667 -1 -25.667 -3 -39s-5 -26.666 -9 -39.999c-15.333 -50 -41.166 -98.5 -77.499 -145.5
s-75.166 -85.5 -116.499 -115.5c-15.333 -11.333 -30.833 -21.166 -46.5 -29.499s-30.5 -14.833 -44.5 -19.5l-2 -26c-0.666992 -8.66699 -1 -17.667 -1 -27c0 -16 0.666992 -32.5 2 -49.5s3.33301 -34.167 6 -51.5c3.33301 -21.333 7.33301 -42.5 12 -63.5l14 -62.5
c2 -6.66699 3.83301 -13.334 5.5 -20.001s3.16699 -13.334 4.5 -20.001h-89h-91c6 24 11.333 47.833 16 71.5s8 47.167 10 70.5c1.33301 12 2.33301 23.833 3 35.5s1 23.5 1 35.5c0 9.33301 -0.166992 18.333 -0.5 27s-0.833008 17.667 -1.5 27
c-0.666992 8.66699 -1.5 17.5 -2.5 26.5s-2.5 17.833 -4.5 26.5c-66.667 9.33301 -124.5 40 -173.5 92s-84.833 108.667 -107.5 170c-7.33301 20.667 -13.166 41.5 -17.499 62.5s-6.5 40.833 -6.5 59.5v4.5c0 1.66699 0.333008 3.16699 1 4.5v4v4h45h45h44.5h44.5v0z" />
    <glyph glyph-name="bracketleft" unicode="Z" horiz-adv-x="758" 
d="M695 693c-84.667 -89.333 -159.666 -185.831 -224.999 -289.498s-121.666 -210.167 -168.999 -319.5c18 -10.667 35.333 -18.5 52 -23.5s33 -7.5 49 -7.5c36.667 0 72 10.167 106 30.5s67.667 42.5 101 66.5l55.5 40c18.333 12.667 37.166 23.667 56.499 33
c0.666992 -23.333 1.5 -46.5 2.5 -69.5s1.83301 -45.833 2.5 -68.5c0.666992 -8 1.16699 -15.833 1.5 -23.5s0.833008 -15.167 1.5 -22.5c-38 -16 -77.167 -29.167 -117.5 -39.5s-81.166 -18.5 -122.499 -24.5c-22 -2.66699 -43.833 -4.83398 -65.5 -6.50098
s-43.167 -2.5 -64.5 -2.5c-56.667 0 -111.167 4.83301 -163.5 14.5s-99.166 23.167 -140.499 40.5c56.667 107.333 126 210.166 208 308.499s166.333 189.833 253 274.5c-14.667 14.667 -32.5 26.334 -53.5 35.001s-42.833 14 -65.5 16
c-3.33301 0.666992 -6.66602 1 -9.99902 1h-10h-2h-2h-2h-2c-43.333 -3.33301 -84.333 -15.666 -123 -36.999s-76.667 -44.333 -114 -69c-1.33301 -1.33301 -2.83301 -2.5 -4.5 -3.5s-3.16699 -2.16699 -4.5 -3.5l-50 -32c-16.667 -10.667 -33.334 -20.334 -50.001 -29.001
c0 5.33301 0.166992 10.833 0.5 16.5s0.5 11.167 0.5 16.5s0.166992 10.833 0.5 16.5s0.5 11.167 0.5 16.5c0 20 0.166992 40 0.5 60s0.833008 40 1.5 60c51.333 11.333 102.833 21.666 154.5 30.999s103.167 16 154.5 20c17.333 1.33301 34.666 2.5 51.999 3.5
s34.666 1.5 51.999 1.5c43.333 0 86.166 -2.33301 128.499 -7s84.5 -12.667 126.5 -24v0z" />
    <glyph glyph-name="backslash" unicode="[" horiz-adv-x="328" 
d="M29 750l229 -0.000976562l-29 -66l-16 2l-39 3l-26 4h-9v-19l-2 -178v-250l2 -238l7 -178v-18h8l26 2l39 8h15l34 -64h-229c4 16 7 29.833 9 41.5s3.66699 23.167 5 34.5c0.666992 9.33301 1.16699 19 1.5 29s0.5 21.333 0.5 34v37l-4 318l-4 322
c0 37.333 -0.166992 63.833 -0.5 79.5s-1.5 28.834 -3.5 39.501c-0.666992 4 -1.5 7.83301 -2.5 11.5l-3.5 12.5l-8 33v0z" />
    <glyph glyph-name="bracketright" unicode="\" horiz-adv-x="430" 
d="M8 566l109.002 -45.999c29.333 -78 60.166 -155.833 92.499 -233.5l97.5 -232.5l42 -99l42 -99l15 -38c-14.667 8.66699 -29.334 16.5 -44.001 23.5s-30 13.833 -46 20.5c-36 93.333 -74 185.666 -114 276.999l-122 273l-8 18l-8 18c-5.33301 12.667 -10.833 25 -16.5 37
l-16.5 36l-23 45v0z" />
    <glyph glyph-name="asciicircum" unicode="]" horiz-adv-x="314" 
d="M271 750l-7 -32.999l-3.5 -12.5c-1 -3.66699 -1.83301 -7.5 -2.5 -11.5c-2 -10.667 -3.16699 -23.834 -3.5 -39.501s-0.5 -42.167 -0.5 -79.5l-4 -322l-2 -318v-38c0 -12 0.166992 -23 0.5 -33s0.833008 -19.667 1.5 -29c1.33301 -11.333 2.83301 -22.833 4.5 -34.5
s4.16699 -25.167 7.5 -40.5l-227 -1l31 64h16l39 -8l27 -2h8v18l6 178l4 238v250l-4 178v19h-8l-27 -4l-39 -3l-14 -2l-29 66h226v0z" />
    <glyph glyph-name="underscore" unicode="^" horiz-adv-x="373" 
d="M184 609l21.502 -16.502l23.5 -17.5c5.33301 -3.33301 10.5 -6.83301 15.5 -10.5s10.167 -7.16699 15.5 -10.5l39.5 -26.5c13 -8.33301 25.167 -15.5 36.5 -21.5l-49 -68c-1.33301 0.666992 -2.5 1.33398 -3.5 2.00098s-2.16699 1.33398 -3.5 2.00098
s-2.66602 1.5 -3.99902 2.5s-2.33301 1.83301 -3 2.5c-4.66699 3.33301 -9.33398 7 -14.001 11l-19 17l-35 27c-0.666992 0.666992 -1.33398 1.16699 -2.00098 1.5s-1.33398 0.833008 -2.00098 1.5l-0.5 0.5l-1.5 1.5l-15 13.5c-5.33301 5 -11.333 11.167 -18 18.5
l-143 -101l26 85l10 4l54 36c8 4 15 8 21 12s12 7.66699 18 11c1.33301 1.33301 2.83301 2.5 4.5 3.5s3.16699 2.16699 4.5 3.5l11.5 8l11.5 8v0z" />
    <glyph glyph-name="grave" unicode="_" horiz-adv-x="465" 
d="M41 -76h393v-49h-393v49v0z" />
    <glyph glyph-name="a" unicode="`" horiz-adv-x="500" 
 />
    <glyph glyph-name="b" unicode="a" horiz-adv-x="484" 
d="M150 461c4.66699 2 10.165 3.5 16.498 4.5s12.833 1.5 19.5 1.5c7.33301 0 15.166 -0.5 23.499 -1.5s16.5 -2.5 24.5 -4.5c22.667 -4.66699 43.667 -12.667 63 -24s31.666 -25 36.999 -41l-0.5 11.5c-0.333008 7.66699 -0.5 16.167 -0.5 25.5v1.5v1.5
c0 8.66699 -0.166992 17 -0.5 25s-0.5 12.667 -0.5 14c1.33301 0.666992 3.33301 1.16699 6 1.5s5.66699 0.5 9 0.5c4.66699 0 9.83398 -0.166992 15.501 -0.5s11.5 -0.833008 17.5 -1.5c1.33301 0 2.83301 -0.166992 4.5 -0.5s3.5 -0.5 5.5 -0.5
c6 -0.666992 11.667 -1.33398 17 -2.00098s9.66602 -1 12.999 -1c6.66699 -26 12.334 -52.667 17.001 -80s8.33398 -54.666 11.001 -81.999c1.33301 -13.333 2.33301 -26.833 3 -40.5s1 -27.167 1 -40.5c0 -38.667 -3 -77.167 -9 -115.5s-15.667 -75.166 -29 -110.499h-2.5
h-3.5c-1.33301 -0.666992 -2.83301 -1 -4.5 -1h-4.5h-11.5c-4.33301 0 -8.5 0.333008 -12.5 1c-8 0 -15.667 0.333008 -23 1s-12.666 1 -15.999 1c-2 0.666992 -3.16699 1.16699 -3.5 1.5s0.166992 0.5 1.5 0.5c5.33301 1.33301 8.83301 4.16602 10.5 8.49902
s2.5 9.83301 2.5 16.5v5c0 2 -0.333008 3.66699 -1 5c0 3.33301 -0.333008 6.66602 -1 9.99902s-1 6.33301 -1 9c-1.33301 4 -2.33301 7.33301 -3 10l-1 4c-7.33301 -14.667 -18.166 -27.5 -32.499 -38.5s-29.166 -19.833 -44.499 -26.5
c-12 -4.66699 -23.667 -8.16699 -35 -10.5s-21 -3.5 -29 -3.5h-4h-4c-60 5.33301 -106.833 30.333 -140.5 75s-50.834 93 -51.501 145v5.5v4.5c0 50.667 13 96.334 39 137.001s63.333 73.667 112 99v0zM222.998 416c-4 -2 -7.99902 -4.49805 -11.999 -7.49805
s-8 -6.5 -12 -10.5c-14 -14.667 -27.167 -34.334 -39.5 -59.001s-21.166 -50.334 -26.499 -77.001c-1.33301 -6.66699 -2.33301 -13.5 -3 -20.5s-1 -13.833 -1 -20.5v-3v-4c-0.666992 -0.666992 -1 -1.66699 -1 -3v-4c0 -7.33301 0.5 -14.833 1.5 -22.5
s2.5 -15.167 4.5 -22.5c6 -24.667 16.167 -48.167 30.5 -70.5s31.166 -37.833 50.499 -46.5c23.333 12 40.5 29.833 51.5 53.5s19.167 48.5 24.5 74.5c2 9.33301 3.83301 18.833 5.5 28.5s3.16699 19.167 4.5 28.5c1.33301 4 2.16602 8 2.49902 12s0.5 8 0.5 12
c0 4.66699 -0.333008 9.5 -1 14.5l-2 15.5c-4 17.333 -10 34.333 -18 51s-16.667 31.334 -26 44.001c-6 8.66699 -12 16.167 -18 22.5s-11.333 11.166 -16 14.499v0z" />
    <glyph glyph-name="c" unicode="b" horiz-adv-x="496" 
d="M127 645l29 -0.00292969h28h27h29l-19.5 -34.5l-23.5 -43.5c-1.33301 -3.33301 -2.83301 -6.66602 -4.5 -9.99902s-3.16699 -6.66602 -4.5 -9.99902l-32.5 -69c-9.66699 -21.333 -14.5 -35.666 -14.5 -42.999c0 -2 0.5 -3.16699 1.5 -3.5s2.83301 0.5 5.5 2.5
c14 12 28.5 20.667 43.5 26s30.167 8 45.5 8h8c2.66699 0 5.33398 -0.333008 8.00098 -1c40.667 -4 79.5 -22.167 116.5 -54.5s64.5 -67.5 82.5 -105.5c6 -13.333 10.667 -26.333 14 -39s5 -24.667 5 -36c0 -9.33301 -0.666992 -19 -2 -29s-3.33301 -20 -6 -30
c-12.667 -43.333 -37.834 -83 -75.501 -119s-86.834 -54 -147.501 -54h-2.5h-2.5h-3h-3c-30.667 -0 -53.5 5.33301 -68.5 16s-27.5 23 -37.5 37l4 -6.5c2.66699 -4.33301 5.33398 -9.83301 8.00098 -16.5c2 -4.66699 3.83301 -9.66699 5.5 -15s3.16699 -10.666 4.5 -15.999
h-19h-32c-9.33301 0.666992 -18.333 1 -27 1h-20c-8 28.667 -14.667 57.5 -20 86.5s-9 58.167 -11 87.5c-0.666992 10 -1.16699 19.833 -1.5 29.5s-0.5 19.5 -0.5 29.5c-0.666992 72.667 8.5 144.167 27.5 214.5s47.5 136.166 85.5 197.499v0zM242 411.997
c-34 -16 -58.999 -40.167 -74.999 -72.5s-24 -66.5 -24 -102.5v-2.5v-3.5c0.666992 -36.667 9 -71.834 25 -105.501s38 -59.834 66 -78.501c22 11.333 42.167 29.833 60.5 55.5s31.5 52.834 39.5 81.501c2.66699 8.66699 4.66699 16.834 6 24.501s2 15.5 2 23.5
c0 7.33301 -0.333008 15 -1 23s-1.66699 16 -3 24c-6 28 -16.833 54.667 -32.5 80s-36.834 43 -63.501 53v0z" />
    <glyph glyph-name="d" unicode="c" horiz-adv-x="484" 
d="M250 467c11.333 0 23.4961 -1.5 36.4961 -4.5s26.167 -6.83301 39.5 -11.5c34 -12.667 65.667 -30.667 95 -54s46 -48.333 50 -75h-69h-68c-2.66699 5.33301 -5.66699 11 -9 17s-6.66602 12.333 -9.99902 19c-7.33301 12 -16.166 23.667 -26.499 35
s-23.833 19.666 -40.5 24.999c-32 -18.667 -56.833 -44.334 -74.5 -77.001s-27.5 -67 -29.5 -103v-5.5v-5.5c0 -36.667 8.33301 -71.5 25 -104.5s42.334 -58.167 77.001 -75.5c21.333 9.33301 39.333 23.333 54 42s27.334 38.334 38.001 59.001h30.5h30.5h30h30
c-7.33301 -36 -29.5 -68.167 -66.5 -96.5s-76.833 -45.5 -119.5 -51.5c-6 -1.33301 -11.833 -2.16602 -17.5 -2.49902s-11.167 -0.5 -16.5 -0.5h-1.5h-0.5h-1.5h-1.5c-5.33301 0 -10.833 0.333008 -16.5 1l-16.5 2c-42 10 -81.167 33.333 -117.5 70s-59.833 76 -70.5 118
c-2 7.33301 -3.33301 14.5 -4 21.5s-1 13.833 -1 20.5c0 6 0.5 12 1.5 18s2.5 12 4.5 18c11.333 45.333 36.5 87.833 75.5 127.5s80.833 63.5 125.5 71.5c4.66699 0.666992 9.16699 1.16699 13.5 1.5s8.83301 0.5 13.5 0.5h2h2h2h2v0z" />
    <glyph glyph-name="e" unicode="d" horiz-adv-x="484" 
d="M234 645l20.9971 0.00488281h22h12.5h12.5c2.66699 0 5 0.166992 7 0.5s4 0.5 6 0.5h19h18c31.333 -56.667 55.166 -115.5 71.499 -176.5s26.5 -122.167 30.5 -183.5c0.666992 -10 1.16699 -20.167 1.5 -30.5s0.5 -20.5 0.5 -30.5
c0.666992 -38.667 -1.16602 -76.667 -5.49902 -114s-10.5 -74.333 -18.5 -111h-20h-27c-10.667 -0.666992 -20.5 -1.16699 -29.5 -1.5s-15.5 -0.833008 -19.5 -1.5c-1.33301 4.66699 -2.16602 8 -2.49902 10s-0.833008 4 -1.5 6v3v5c-4 -2 -7.83301 -3.66699 -11.5 -5
l-11.5 -4c-10 -4 -21 -7.16699 -33 -9.5s-27.333 -4.16602 -46 -5.49902h-2.5h-2.5c-55.333 -0.666992 -102.166 18.166 -140.499 56.499s-62.5 80.833 -72.5 127.5c-1.33301 7.33301 -2.33301 14.666 -3 21.999s-1 14.666 -1 21.999c0 6 0.5 11.833 1.5 17.5
s2.16699 11.5 3.5 17.5c12.667 47.333 41.834 90.5 87.501 129.5s97.5 58.5 155.5 58.5c9.33301 0 18.5 -0.5 27.5 -1.5s18.167 -2.83301 27.5 -5.5c-0.666992 2.66699 -1.16699 5.5 -1.5 8.5s-0.833008 6.16699 -1.5 9.5c-5.33301 28.667 -14 57.167 -26 85.5
s-24.667 55.166 -38 80.499c-1.33301 3.33301 -2.83301 6.66602 -4.5 9.99902s-3.5 6.66602 -5.5 9.99902v0zM224.997 402.005c-4 -1.33301 -8.50098 -4.16602 -13.501 -8.49902s-10.167 -9.83301 -15.5 -16.5c-8.66699 -10.667 -17 -24 -25 -40s-14.333 -32.333 -19 -49
c-2 -8 -3.66699 -16 -5 -24s-2 -15.667 -2 -23v-2.5v-2.5v-3v-3c0.666992 -10 1.83398 -21 3.50098 -33s4.16699 -24 7.5 -36c7.33301 -28.667 18.5 -55.167 33.5 -79.5s33.833 -37.166 56.5 -38.499c21.333 12.667 39.333 31.167 54 55.5s25 50.166 31 77.499
c1.33301 6.66699 2.33301 13.167 3 19.5s1 12.833 1 19.5v4v4c-0.666992 0.666992 -1 1.66699 -1 3v4c0 7.33301 -0.5 14.833 -1.5 22.5s-2.5 15.5 -4.5 23.5c-6.66699 28 -18.5 54.167 -35.5 78.5s-39.5 40.166 -67.5 47.499v0z" />
    <glyph glyph-name="f" unicode="e" horiz-adv-x="553" 
d="M506 295l-4.50293 -0.00195312c-1.66699 0 -3.16699 -0.333008 -4.5 -1c-56 -3.33301 -111.167 -10 -165.5 -20s-106.166 -35 -155.499 -75v-1.5v-2.5c0 -5.33301 0.333008 -10.666 1 -15.999s1.66699 -10.666 3 -15.999c6 -24.667 17 -48 33 -70s33 -36.667 51 -44
c1.33301 -0.666992 2.5 -1.16699 3.5 -1.5s1.83301 -0.5 2.5 -0.5c5.33301 1.33301 10.666 3.83301 15.999 7.5s11 8.16699 17 13.5c8.66699 9.33301 17.334 20.333 26.001 33s16.667 25.667 24 39c5.33301 9.33301 10 18.833 14 28.5s7.33301 18.5 10 26.5
c10.667 0 21.334 -0.166992 32.001 -0.5s21.667 -0.5 33 -0.5c10.667 0 21.334 -0.166992 32.001 -0.5s21.334 -0.5 32.001 -0.5c-12 -64 -39.167 -111 -81.5 -141s-87.5 -47.667 -135.5 -53c-3.33301 -0.666992 -6.5 -1.16699 -9.5 -1.5s-5.83301 -0.5 -8.5 -0.5h-2.5h-2.5
h-3h-3c-58.667 -0.666992 -110.834 20.5 -156.501 63.5s-73.5 90.167 -83.5 141.5c-1.33301 6 -2.33301 12 -3 18s-1 12 -1 18v6.5c0 2.33301 0.333008 4.83301 1 7.5c4.66699 46.667 27.5 90.667 68.5 132s85.5 68.666 133.5 81.999c9.33301 2 18.5 3.66699 27.5 5
s17.833 2 26.5 2c8 0 16.167 -0.5 24.5 -1.5s16.833 -2.5 25.5 -4.5c41.333 -9.33301 79.833 -28.666 115.5 -57.999s58.167 -67.333 67.5 -114v0zM177.997 292.998c28 15.333 53.667 25.498 77 30.498s46.333 8.16699 69 9.5c3.33301 0 6.5 0.166992 9.5 0.5
s5.83301 0.5 8.5 0.5c-0.666992 2.66699 -1.66699 5.33398 -3 8.00098s-2.66602 5.66699 -3.99902 9c-4.66699 8 -10 16 -16 24s-12.333 15.333 -19 22l-18.5 16c-5.66699 4.66699 -10.834 7.66699 -15.501 9c-4 0 -9.83301 -3 -17.5 -9s-16.167 -13.667 -25.5 -23
c-6.66699 -7.33301 -13.167 -15.333 -19.5 -24s-11.833 -17.667 -16.5 -27c-2.66699 -6 -5 -12.167 -7 -18.5s-3 -12.166 -3 -17.499v-5.5c0 -1.66699 0.333008 -3.16699 1 -4.5v0z" />
    <glyph glyph-name="g" unicode="f" horiz-adv-x="441" 
d="M229 650c46 -1.33301 81.4971 -14.002 106.497 -38.002s43.5 -50.333 55.5 -79c4 -10 7.66699 -20 11 -30s6 -19.333 8 -28h-21.5h-21.5c-14 -0.666992 -28 -1 -42 -1s-28 0.333008 -42 1c-0.666992 2 -1.16699 3.83301 -1.5 5.5s-0.833008 3.5 -1.5 5.5
c-1.33301 6 -2.83301 12.333 -4.5 19l-5.5 21c-5.33301 18 -12.166 35 -20.499 51s-20.5 26.667 -36.5 32c-3.33301 -0.666992 -7.5 -5 -12.5 -13s-9.83301 -18.333 -14.5 -31c-6 -16.667 -12 -36.167 -18 -58.5s-10.667 -45.166 -14 -68.499
c-2 -13.333 -3.66699 -26.5 -5 -39.5s-2 -25.5 -2 -37.5v-6v-6c0 -2.66699 0.166992 -5 0.5 -7s0.5 -4 0.5 -6c15.333 5.33301 29.833 8.83301 43.5 10.5s26.834 2.5 39.501 2.5h12.5h13.5c4.66699 -0.666992 9.16699 -1 13.5 -1h12.5c0.666992 -2.66699 1 -5.5 1 -8.5v-9.5
v-6.5v-6.5v-4v-3c-0.666992 -3.33301 -1 -6.66602 -1 -9.99902v-9c-8.66699 2 -17.167 3.5 -25.5 4.5s-16.833 1.5 -25.5 1.5c-12.667 0.666992 -26 -0.5 -40 -3.5s-28.667 -7.83301 -44 -14.5c0 -6.66699 0.166992 -13.5 0.5 -20.5s0.833008 -13.833 1.5 -20.5
c3.33301 -44 12.333 -87 27 -129s33.667 -78.667 57 -110c-6 0 -12.5 -0.166992 -19.5 -0.5s-14.167 -0.5 -21.5 -0.5h-2h-1c-6.66699 0 -13.167 -0.166992 -19.5 -0.5s-12.5 -0.5 -18.5 -0.5c-6.66699 2 -14 6.83301 -22 14.5s-16 17.167 -24 28.5
c-15.333 22.667 -30.166 51 -44.499 85s-25.166 69.333 -32.499 106c-2.66699 14 -4.83398 27.833 -6.50098 41.5s-2.5 26.834 -2.5 39.501v2.5v2.5v2.5v2.5c0 7.33301 0.333008 14.666 1 21.999l2 22c8 71.333 28.833 136.5 62.5 195.5s79.167 88.5 136.5 88.5h2h2h1h2v0z
" />
    <glyph glyph-name="h" unicode="g" horiz-adv-x="541" 
d="M344 447c0 -0.666992 0.498047 -0.00195312 1.49805 1.99805s1.83301 4 2.5 6v0.5v0.5c1.33301 2 2.33301 4 3 6l1 3h27.5h27.5h26.5h27.5c2.66699 -12.667 5.66699 -25.5 9 -38.5l10 -39.5c6.66699 -26.667 13 -53.5 19 -80.5s9 -54.167 9 -81.5v-2v-2v-2v-2
c0 -22.667 -1 -46.5 -3 -71.5s-5 -50.5 -9 -76.5c-11.333 -70 -35.166 -135 -71.499 -195s-94.5 -94.333 -174.5 -103h-2.5c-1 0 -2.16699 -0.333008 -3.5 -1h-2.5h-3.5c-38 0 -73 16.5 -105 49.5s-55.667 69.167 -71 108.5c-0.666992 2.66699 -1.5 5.33398 -2.5 8.00098
s-1.83301 5.33398 -2.5 8.00098h29.5h28.5h36.5h37.5l4 -14l4 -14c5.33301 -14.667 11.666 -28.5 18.999 -41.5s15 -22.5 23 -28.5c2.66699 -2.66699 5.16699 -4.5 7.5 -5.5s4.83301 -1.5 7.5 -1.5h2.5h1.5c14 6.66699 26.167 20.5 36.5 41.5s15.5 44.833 15.5 71.5
c0 6.66699 -0.5 13.334 -1.5 20.001s-2.16699 13.667 -3.5 21c-92 -1.33301 -161.667 21 -209 67s-71.333 98.667 -72 158v4c0 1.33301 0.333008 2.66602 1 3.99902v4v4c0.666992 8 1.83398 16.333 3.50098 25s3.83398 17 6.50098 25c14.667 46 42 87.833 82 125.5
s86.667 56.5 140 56.5c13.333 0.666992 27.5 -0.5 42.5 -3.5s29.833 -8.16699 44.5 -15.5v0zM276.998 46.998c31.333 16.667 54.666 41.5 69.999 74.5s23 67.833 23 104.5v6.5v7.5c-2 38.667 -12 75.5 -30 110.5s-43.333 60.833 -76 77.5
c-18 -10.667 -34.5 -28.334 -49.5 -53.001s-26.167 -50.667 -33.5 -78c-2 -9.33301 -3.66699 -18.5 -5 -27.5s-2 -17.833 -2 -26.5v-1.5v-0.5v-1.5v-1.5c0.666992 -9.33301 1.5 -19.166 2.5 -29.499s2.83301 -20.5 5.5 -30.5c5.33301 -28 15.333 -54.5 30 -79.5
s36.334 -42.167 65.001 -51.5v0z" />
    <glyph glyph-name="i" unicode="h" horiz-adv-x="576" 
d="M244 652c0.666992 -0.666992 -1.16699 -11.1689 -5.5 -31.502l-14.5 -65.5c-0.666992 -1.33301 -1 -2.33301 -1 -3v-2c-6 -24 -11.167 -45.5 -15.5 -64.5l-6.5 -28.5c16 4 31.333 6.83301 46 8.5s28.334 2.5 41.001 2.5c72 0 126.333 -22.833 163 -68.5
s59.667 -102.167 69 -169.5c0 -2.66699 0.166992 -5.66699 0.5 -9s0.5 -6.33301 0.5 -9c0.666992 -3.33301 1 -6.5 1 -9.5v-9.5c0 -32.667 -3.5 -64.667 -10.5 -96s-14.833 -61.666 -23.5 -90.999h-64h-63c1.33301 14 2.83301 27.833 4.5 41.5s3.5 27.5 5.5 41.5l8 66.5
c2.66699 22.333 4 44.833 4 67.5c0 7.33301 -0.333008 14.5 -1 21.5s-2 14.167 -4 21.5c-6.66699 33.333 -20 64.666 -40 93.999s-42.667 50 -68 62c-22.667 -21.333 -42.5 -47.166 -59.5 -77.499s-29.167 -63.166 -36.5 -98.499l-2 -12c-0.666992 -4 -1 -7.66699 -1 -11
c-0.666992 -4 -1.16699 -8 -1.5 -12s-0.5 -8 -0.5 -12c0 -8 0.333008 -16.167 1 -24.5s1.66699 -16.833 3 -25.5c1.33301 -12 3.16602 -23.833 5.49902 -35.5s4.5 -23.5 6.5 -35.5l8 -38c2.66699 -12.667 4.66699 -25.334 6 -38.001c-10 -0.666992 -20 -1.16699 -30 -1.5
s-20 -0.5 -30 -0.5h-30.5c-10.333 0 -20.5 -0.333008 -30.5 -1c-12 47.333 -21 92.333 -27 135s-9 83.667 -9 123c0 27.333 1.33301 54 4 80s7 52 13 78c8 37.333 19.167 74.833 33.5 112.5s31.833 76.834 52.5 117.501c8 0 16.167 0.333008 24.5 1s16.833 1.66699 25.5 3
l24.5 2c8.33301 0.666992 16.5 1 24.5 1v0z" />
    <glyph glyph-name="j" unicode="i" horiz-adv-x="281" 
d="M94 465c-1.33301 0 4.16699 -0.000976562 16.5 -0.000976562h39.5h39.5h17.5c6 -23.333 10.667 -47.5 14 -72.5s5.66602 -50.167 6.99902 -75.5c0 -7.33301 0.166992 -14.666 0.5 -21.999s0.5 -14.666 0.5 -21.999c0 -54.667 -4.16699 -106.667 -12.5 -156
s-19.166 -90 -32.499 -122c-10 0.666992 -20 1.16699 -30 1.5s-20 0.5 -30 0.5s-20.167 0.166992 -30.5 0.5s-20.5 0.833008 -30.5 1.5c9.33301 54 18 109 26 165s12.333 114 13 174c0 20.667 -0.666992 41.667 -2 63s-3.33301 42.666 -6 63.999v0zM35 606.999
c1.33301 12 8.16602 22.334 20.499 31.001s25.833 15 40.5 19c6 2 11.667 3.33301 17 4s10.333 1 15 1h1.5h1.5h0.5h1.5c4 0 8.33301 -0.333008 13 -1s9.33398 -1.66699 14.001 -3c15.333 -3.33301 29.333 -9.83301 42 -19.5s19 -21.5 19 -35.5v-1.5v-1.5
c-0.666992 -22 -10.167 -38.5 -28.5 -49.5s-38.5 -16.5 -60.5 -16.5h-1.5h-1.5c-23.333 0.666992 -44.833 7.16699 -64.5 19.5s-29.5 30.166 -29.5 53.499v0z" />
    <glyph glyph-name="k" unicode="j" horiz-adv-x="260" 
d="M76 461c8.66699 0.666992 17.333 1.16406 26 1.49707s17.667 0.5 27 0.5c8.66699 0 17.5 0.166992 26.5 0.5s17.833 0.833008 26.5 1.5c13.333 -42 24 -86.167 32 -132.5s13.333 -93.166 16 -140.499c0 -10 0.166992 -19.667 0.5 -29s0.5 -18.666 0.5 -27.999
c0 -70.667 -6.5 -139 -19.5 -205s-33.5 -124.333 -61.5 -175c-7.33301 -0.666992 -15.5 -1.33398 -24.5 -2.00098s-17.833 -1 -26.5 -1c-4.66699 -0.666992 -9.16699 -1 -13.5 -1h-13.5c13.333 78.667 23.166 150.334 29.499 215.001s9.83301 125.334 10.5 182.001
c0 56.667 -3.16699 110.5 -9.5 161.5s-15.166 101.5 -26.499 151.5v0zM19.999 575.997v1.49902v1.5c0 22.667 9.16699 39.5 27.5 50.5s38.833 16.5 61.5 16.5c22 0 42.333 -5.5 61 -16.5s28.334 -27.5 29.001 -49.5c0 -12.667 -5.83301 -23.667 -17.5 -33
s-24.5 -16 -38.5 -20c-4.66699 -2 -9.5 -3.5 -14.5 -4.5s-9.5 -1.5 -13.5 -1.5c-4.66699 0 -9.5 0.166992 -14.5 0.5s-9.83301 1.16602 -14.5 2.49902c-16.667 2.66699 -31.834 8.33398 -45.501 17.001s-20.5 20.334 -20.5 35.001v0z" />
    <glyph glyph-name="l" unicode="k" horiz-adv-x="496" 
d="M189 648c-14.667 -49.333 -26.1641 -94.334 -34.4971 -135.001s-13.833 -80.667 -16.5 -120c-0.666992 -8.66699 -1.16699 -17.167 -1.5 -25.5s-0.5 -16.833 -0.5 -25.5c0 -14.667 0.5 -29.667 1.5 -45s2.16699 -31 3.5 -47c10 3.33301 20.667 8.66602 32 15.999
s22.666 16 33.999 26c20 16.667 39.333 36.5 58 59.5s35 46.833 49 71.5c4.66699 8 9 16 13 24s7.66699 16 11 24c11.333 0 22.166 -0.166992 32.499 -0.5s20.833 -0.833008 31.5 -1.5c10 -0.666992 20.167 -1.16699 30.5 -1.5s21.166 -0.5 32.499 -0.5
c-12 -36.667 -28.667 -70 -50 -100s-45.666 -58.667 -72.999 -86c17.333 -18 32.666 -36.5 45.999 -55.5s24.666 -37.833 33.999 -56.5c14.667 -28.667 25.5 -56.667 32.5 -84s10.5 -53 10.5 -77v-5.5v-5.5c-23.333 0.666992 -46.666 1.16699 -69.999 1.5
s-46.333 0.5 -69 0.5v4.5c0 1.66699 0.333008 3.5 1 5.5v5.5v5.5c0 10 -0.333008 20 -1 30s-1.66699 20 -3 30c-3.33301 29.333 -9.33301 57.833 -18 85.5s-20.334 51.834 -35.001 72.501c-10.667 -7.33301 -22.5 -13.5 -35.5 -18.5s-26.167 -9.5 -39.5 -13.5l-14.5 -4
c-5 -1.33301 -9.83301 -3 -14.5 -5l-14 -4c-4.66699 -1.33301 -9 -2.66602 -13 -3.99902c1.33301 -10.667 2.33301 -21.5 3 -32.5l2 -31.5c0 -4.66699 0.166992 -9 0.5 -13s0.5 -8 0.5 -12c1.33301 -16.667 3 -33.667 5 -51s5.33301 -34.666 10 -51.999
c-10 0 -20.167 0.166992 -30.5 0.5s-20.5 0.5 -30.5 0.5c-10.667 0 -21.167 0.166992 -31.5 0.5s-20.5 0.5 -30.5 0.5c-13.333 40.667 -23.166 83.167 -29.499 127.5s-9.5 89.166 -9.5 134.499v16.5c0 5.66699 0.333008 11.5 1 17.5c1.33301 62 8.83301 123.167 22.5 183.5
s33.167 116.833 58.5 169.5h26h29h28h26v0z" />
    <glyph glyph-name="m" unicode="l" horiz-adv-x="270" 
d="M8 648l44.001 -0.000976562h46c45.333 -84 78.166 -162.5 98.499 -235.5s30.5 -143.167 30.5 -210.5c0 -34.667 -2.33301 -69.167 -7 -103.5s-11.667 -68.166 -21 -101.499c-10 0 -19.833 0.166992 -29.5 0.5s-19.5 0.5 -29.5 0.5s-20 0.166992 -30 0.5s-20 0.5 -30 0.5
c4.66699 28.667 8.16699 57.167 10.5 85.5s3.5 56.5 3.5 84.5c0 61.333 -4.66699 121.833 -14 181.5s-21.666 119.167 -36.999 178.5l-16.5 59.5c-5.66699 19.667 -11.834 39.5 -18.501 59.5v0z" />
    <glyph glyph-name="n" unicode="m" horiz-adv-x="871" 
d="M434 408c6.66699 4.66699 12.8369 9.33398 18.5039 14.001s11.5 9 17.5 13c15.333 10 31.166 18 47.499 24s35.5 9 57.5 9h10.5c3.66699 0 7.16699 -0.333008 10.5 -1c76.667 -4.66699 136.5 -29.834 179.5 -75.501s64.5 -106.834 64.5 -183.501
c0 -30.667 -3.66699 -63.5 -11 -98.5s-18.666 -71.833 -33.999 -110.5c-12 0 -23 0.166992 -33 0.5s-20 0.5 -30 0.5h-30.5h-33.5c7.33301 20.667 12.666 43.834 15.999 69.501s5 52.167 5 79.5v10v10c-2 60 -10.5 115.167 -25.5 165.5s-34.5 76.833 -58.5 79.5h-4.5h-4.5
c-38.667 0.666992 -66.334 -18.333 -83.001 -57s-25 -84.667 -25 -138c0 -14 0.5 -28 1.5 -42s2.16699 -28.333 3.5 -43c3.33301 -22.667 7.33301 -45.5 12 -68.5s10 -44.833 16 -65.5h-42h-41h-42h-42c0.666992 6.66699 1.5 13.667 2.5 21s1.83301 14.666 2.5 21.999
c2 14 3.83301 28 5.5 42s3.16699 28 4.5 42s2.33301 28 3 42s1 27.667 1 41c0.666992 47.333 -5.66602 89.5 -18.999 126.5s-39.666 60.833 -78.999 71.5c-40.667 -3.33301 -69.667 -25 -87 -65s-26 -85.333 -26 -136c0 -6 0.166992 -11.833 0.5 -17.5s0.5 -11.5 0.5 -17.5
c2 -31.333 6.5 -62 13.5 -92s15.833 -56 26.5 -78c-12.667 0 -25.334 -0.166992 -38.001 -0.5s-25.334 -0.5 -38.001 -0.5s-25.334 -0.166992 -38.001 -0.5s-25.334 -0.5 -38.001 -0.5c-9.33301 27.333 -16.833 55.166 -22.5 83.499s-9.5 56.5 -11.5 84.5
c0 7.33301 -0.166992 14.5 -0.5 21.5s-0.5 14.167 -0.5 21.5c0 44 4.16699 87.5 12.5 130.5s19.833 84.167 34.5 123.5h30h28h31.5h33.5v-4.5v-6.5v-6v-5c12.667 8.66699 26.5 15 41.5 19s30.5 6 46.5 6c4 0 8 -0.166992 12 -0.5s8.33301 -0.5 13 -0.5
c25.333 -3.33301 50 -10.166 74 -20.499s44.333 -23.166 61 -38.499v0z" />
    <glyph glyph-name="o" unicode="n" horiz-adv-x="576" 
d="M186 443l3.49512 3.49902c1 1 2.16699 1.83301 3.5 2.5c8.66699 8 18.334 14.167 29.001 18.5s26 6.5 46 6.5h11c4 0 8 -0.333008 12 -1c94 -6.66699 158.833 -39.834 194.5 -99.501s53.5 -126.834 53.5 -201.501c0 -7.33301 -0.166992 -14.833 -0.5 -22.5
s-0.833008 -15.167 -1.5 -22.5c-1.33301 -22.667 -4.16602 -45.167 -8.49902 -67.5s-9.16602 -43.833 -14.499 -64.5c-22.667 0 -45.167 0.333008 -67.5 1s-44.833 1.66699 -67.5 3c3.33301 19.333 5.33301 38.833 6 58.5l2 58.5c0 15.333 0.166992 30.333 0.5 45
s0.833008 29.334 1.5 44.001v3.5v3.5v3.5v3.5c0.666992 46 -8.16602 85.667 -26.499 119s-38.5 56 -60.5 68c-4.66699 2.66699 -9.5 4.66699 -14.5 6s-9.83301 2 -14.5 2c-22.667 -3.33301 -41.5 -17.5 -56.5 -42.5s-26.5 -52.167 -34.5 -81.5
c-3.33301 -12.667 -6 -25 -8 -37s-3.33301 -23.333 -4 -34v-2.5v-2.5v-3v-3c0 -18 1.16699 -36.833 3.5 -56.5s5.83301 -39.5 10.5 -59.5c4 -16 8.5 -31.833 13.5 -47.5s10.833 -30.834 17.5 -45.501c-12 0 -23.833 -0.166992 -35.5 -0.5s-23.167 -0.5 -34.5 -0.5
c-12 0 -23.667 -0.166992 -35 -0.5s-22.666 -0.5 -33.999 -0.5c-14.667 34.667 -26.167 70.834 -34.5 108.501s-13.5 75.167 -15.5 112.5c-0.666992 6.66699 -1 13.167 -1 19.5v18.5c0 8.66699 0.166992 17.334 0.5 26.001s0.833008 17.667 1.5 27
c2 26 5.33301 52.167 10 78.5s10.667 52.166 18 77.499h27.5h38.5h37h28v-0.5c0 -0.333008 0.333008 -0.833008 1 -1.5v-1.5v-0.5c0 -0.666992 -0.166992 -1.66699 -0.5 -3s-0.5 -2.66602 -0.5 -3.99902c0 -0.666992 -0.166992 -1.66699 -0.5 -3
s-0.5 -2.66602 -0.5 -3.99902v-0.5c0 -0.333008 0.333008 -0.833008 1 -1.5v-1.5v-0.5v0z" />
    <glyph glyph-name="p" unicode="o" horiz-adv-x="553" 
d="M283 467c8.66699 0 17.667 -0.832031 27 -2.49902s18.666 -3.83398 27.999 -6.50098c48.667 -14 93.334 -41.5 134.001 -82.5s61 -84.833 61 -131.5v-6v-5c-2.66699 -50 -25 -96.833 -67 -140.5s-88 -71.5 -138 -83.5c-6.66699 -1.33301 -13.5 -2.5 -20.5 -3.5
s-13.833 -1.5 -20.5 -1.5h-2.5h-2.5h-4h-5c-56 2.66699 -108.5 26.834 -157.5 72.501s-78.833 95.5 -89.5 149.5l-2 16.5c-0.666992 5.66699 -1 11.5 -1 17.5v0.5v0.5v0.5v0.5c0 43.333 19.333 83.166 58 119.499s81.334 61.5 128.001 75.5
c11.333 3.33301 22.666 5.83301 33.999 7.5s22.333 2.5 33 2.5h4h3v0zM283 434.001l-0.49707 -0.00390625h-0.5h-0.5h-0.5c-24.667 0 -45.667 -11.833 -63 -35.5s-30.333 -49.5 -39 -77.5c-2.66699 -10.667 -4.83398 -21.167 -6.50098 -31.5s-2.5 -20.166 -2.5 -29.499
c0 -10 0.666992 -20.667 2 -32s3.33301 -22.666 6 -33.999c7.33301 -32.667 20.166 -62.667 38.499 -90s41.833 -41.666 70.5 -42.999h1.5h1.5c24 0 43.333 12.5 58 37.5s25 52.5 31 82.5c2 10.667 3.5 21.334 4.5 32.001s1.5 20.667 1.5 30v2v2v1v2
c0 9.33301 -0.666992 19.5 -2 30.5s-3 22.167 -5 33.5c-6.66699 29.333 -17.834 56.333 -33.501 81s-36.167 37.667 -61.5 39v0z" />
    <glyph glyph-name="q" unicode="p" horiz-adv-x="543" 
d="M523 242c0 -6.66699 -0.5 -13.5039 -1.5 -20.5039s-2.5 -14.167 -4.5 -21.5c-12 -54 -41.667 -103.333 -89 -148s-104.333 -67 -171 -67c-12 0 -24 0.833008 -36 2.5s-24.333 4.16699 -37 7.5v-6v-6c0 -19.333 2.16699 -38.666 6.5 -57.999s9.83301 -38.666 16.5 -57.999
c6 -17.333 12.833 -34.666 20.5 -51.999l23.5 -52c0.666992 -2 1.5 -4 2.5 -6s1.83301 -4 2.5 -6h-23.5h-27.5h-25h-22c-38.667 68 -72 139.667 -100 215s-43.667 151.666 -47 228.999v10.5v11.5c0 42 4.66699 83.833 14 125.5s24.333 82.5 45 122.5h18.5h16.5
c2 -0.666992 4 -1 6 -1h7h8.5h8.5h17c6 0 12.667 0.333008 20 1c-1.33301 -1.33301 -2.83301 -3.83301 -4.5 -7.5s-3.5 -7.5 -5.5 -11.5c-0.666992 -1.33301 -1.16699 -2.66602 -1.5 -3.99902s-0.833008 -3 -1.5 -5c-3.33301 -7.33301 -6 -14 -8 -20l-3 -9
c15.333 20 32.666 34.5 51.999 43.5s40 13.5 62 13.5c8 0 16 -0.5 24 -1.5s16.333 -2.5 25 -4.5c40.667 -10 79.5 -30.167 116.5 -60.5s63.833 -62.5 80.5 -96.5c4.66699 -10 8.33398 -20.167 11.001 -30.5s4 -20.166 4 -29.499v0zM273 417.996l-1.99902 0.00390625
c-0.666992 0 -1 0.333008 -1 1h-2h-2c-19.333 0.666992 -37.166 -12 -53.499 -38s-28.833 -54.667 -37.5 -86c-3.33301 -13.333 -6 -26.333 -8 -39s-3 -24.334 -3 -35.001c0 -10 0.666992 -20.5 2 -31.5s3.33301 -22.5 6 -34.5c7.33301 -30 19 -57.5 35 -82.5
s37 -37.5 63 -37.5s46.667 12.5 62 37.5s27 52.5 35 82.5c3.33301 12 6.16602 23.5 8.49902 34.5s4.16602 21.5 5.49902 31.5c0.666992 3.33301 1 6.5 1 9.5v9.5c0 4.66699 -0.166992 9.5 -0.5 14.5s-0.833008 9.83301 -1.5 14.5c-4.66699 27.333 -14.5 53.166 -29.5 77.499
s-31.167 43.166 -48.5 56.499c-4.66699 4 -9.5 7.16699 -14.5 9.5s-9.83301 4.16602 -14.5 5.49902v0z" />
    <glyph glyph-name="r" unicode="q" horiz-adv-x="553" 
d="M0 246v1.50098v0.5c-0 10 1.33301 20.5 4 31.5s6.66699 21.833 12 32.5c17.333 36 45 69.333 83 100s78 48.667 120 54c4 0.666992 7.83301 1.16699 11.5 1.5s7.5 0.5 11.5 0.5c24.667 0 48.5 -6 71.5 -18s43.5 -32.333 61.5 -61l-3 12l-7 27
c-0.666992 1.33301 -1.16699 2.5 -1.5 3.5s-0.5 2.16699 -0.5 3.5c-2 7.33301 -4 14.166 -6 20.499s-3.66699 10.166 -5 11.499c10 0 18.667 0.166992 26 0.5s14.666 0.833008 21.999 1.5h0.5h1.5c7.33301 0.666992 15 1.16699 23 1.5s17.333 0.5 28 0.5
c20 -40 34.5 -80.333 43.5 -121s13.5 -81.667 13.5 -123c0.666992 -82.667 -13.5 -164.167 -42.5 -244.5s-63.833 -156.166 -104.5 -227.499h-22.5h-25.5h-26.5h-22.5c0.666992 2 1.5 4 2.5 6s1.83301 4 2.5 6l21 45.5c6.66699 15 12.667 29.833 18 44.5
c8.66699 21.333 15.5 42.666 20.5 63.999s7.5 43 7.5 65v3v3v3.5v3.5c-12.667 -3.33301 -25 -5.83301 -37 -7.5s-23.667 -2.5 -35 -2.5c-68 -0.666992 -125.667 21.666 -173 66.999s-76.666 95.333 -87.999 150c-1.33301 6.66699 -2.5 13.334 -3.5 20.001
s-1.5 13.334 -1.5 20.001v0zM250 422.001c-4 -0.666992 -8.16699 -2.00293 -12.5 -4.00293s-8.83301 -4.66699 -13.5 -8c-17.333 -11.333 -33.666 -29.166 -48.999 -53.499s-25.666 -50.166 -30.999 -77.499l-2 -14.5c-0.666992 -5 -1 -10.167 -1 -15.5v-5.5
c0 -1.66699 0.333008 -3.5 1 -5.5c0 -2 0.166992 -3.83301 0.5 -5.5s0.5 -3.5 0.5 -5.5c1.33301 -10 3 -20.5 5 -31.5s4.66699 -22.167 8 -33.5c7.33301 -30.667 18.5 -58.834 33.5 -84.501s35.833 -38.5 62.5 -38.5c26 0 47.167 12.833 63.5 38.5
s27.833 53.834 34.5 84.501c2.66699 10.667 4.5 21 5.5 31s1.5 19.667 1.5 29v1.5v1.5v0.5v1.5c0 10.667 -1 22.5 -3 35.5s-4.66699 25.833 -8 38.5c-8.66699 30.667 -20.834 58.834 -36.501 84.501s-33.167 38.167 -52.5 37.5h-2h-1
c-0.666992 -0.666992 -1.33398 -1 -2.00098 -1h-2v0z" />
    <glyph glyph-name="s" unicode="r" horiz-adv-x="430" 
d="M180 389c35.333 29.333 71.501 49.5049 108.501 60.5049s74.833 17.5 113.5 19.5v-26.5v-27.5v-27.5v-26.5c-6 -0.666992 -12 -1 -18 -1h-19h-2h-2c-33.333 -0.666992 -66 -3.33398 -98 -8.00098s-61 -20.334 -87 -47.001c-2.66699 -18 -4.83398 -36.167 -6.50098 -54.5
s-2.5 -36.833 -2.5 -55.5c0 -16.667 0.5 -33.167 1.5 -49.5s2.5 -32.5 4.5 -48.5c2 -16.667 4.33301 -33.167 7 -49.5s5.66699 -32.5 9 -48.5h-32h-32c-10.667 0 -21.334 -0.166992 -32.001 -0.5s-21.334 -0.833008 -32.001 -1.5c-10.667 42 -20.167 85.5 -28.5 130.5
s-12.833 90.5 -13.5 136.5c0 34.667 3.33301 69.167 10 103.5s18 68.166 34 101.499c10.667 0 21.334 -0.166992 32.001 -0.5s21.334 -0.5 32.001 -0.5s21.5 -0.166992 32.5 -0.5s22.167 -0.5 33.5 -0.5c-0.666992 -6 -1.66699 -12.333 -3 -19s-2.33301 -13.334 -3 -20.001
c-0.666992 -0.666992 -1 -1.33398 -1 -2.00098v-2c-1.33301 -6 -2.5 -12 -3.5 -18s-1.83301 -11.667 -2.5 -17v0z" />
    <glyph glyph-name="t" unicode="s" horiz-adv-x="506" 
d="M465 322c-21.333 0 -43.166 0.166016 -65.499 0.499023s-44.833 0.833008 -67.5 1.5c0 4.66699 -1.33301 10 -4 16s-6.33398 12 -11.001 18c-4 6.66699 -9 13.334 -15 20.001s-12.333 12.667 -19 18c-6 4.66699 -11.833 8.5 -17.5 11.5s-10.834 4.5 -15.501 4.5
c-16 0 -29.833 -7.16699 -41.5 -21.5s-21.834 -30.166 -30.501 -47.499c-2.66699 -5.33301 -5.16699 -10.833 -7.5 -16.5l-6.5 -15.5c22.667 -4 46 -9.16699 70 -15.5s48.333 -13.5 73 -21.5c30.667 -10 61 -21.167 91 -33.5s58.667 -25.5 86 -39.5
c-4.66699 -66 -26.667 -114.833 -66 -146.5s-82 -52.167 -128 -61.5c-10 -2 -20.167 -3.66699 -30.5 -5s-20.166 -2.33301 -29.499 -3h-1.5h-1.5c-39.333 0 -76.666 12.5 -111.999 37.5s-61.666 52.833 -78.999 83.5c-4 6 -7.16699 11.833 -9.5 17.5s-4.5 11.5 -6.5 17.5
c11.333 0 22.666 -0.166992 33.999 -0.5s22.666 -0.5 33.999 -0.5s22.666 -0.166992 33.999 -0.5s22.666 -0.5 33.999 -0.5c2 -4 3.83301 -8.33301 5.5 -13s3.83398 -9.33398 6.50098 -14.001c8.66699 -18.667 19.334 -35.834 32.001 -51.501s28.334 -23.5 47.001 -23.5h1.5
h1.5c14.667 0.666992 28 7.5 40 20.5s21.667 27.167 29 42.5c4 8.66699 7.33301 17.334 10 26.001s4.33398 16 5.00098 22c-39.333 26 -82.833 47.167 -130.5 63.5s-95.834 31.5 -144.501 45.5c-1.33301 0.666992 -2.83301 1.16699 -4.5 1.5s-3.16699 0.833008 -4.5 1.5
c-6.66699 2 -13.167 3.83301 -19.5 5.5s-12.5 3.5 -18.5 5.5c11.333 52 36.5 93.667 75.5 125s81.167 52.333 126.5 63c5.33301 1.33301 10.833 2.5 16.5 3.5s11.5 1.83301 17.5 2.5c1.33301 0 2.5 0.166992 3.5 0.5s2.16699 0.5 3.5 0.5h3h3c4 0 8 -0.166992 12 -0.5
s8 -0.833008 12 -1.5c30 -5.33301 59 -18.833 87 -40.5s52 -45.167 72 -70.5c4 -5.33301 7.66699 -10.5 11 -15.5l10 -15.5v0z" />
    <glyph glyph-name="u" unicode="t" horiz-adv-x="418" 
d="M301 646l-7.99902 -25.5c-2.66699 -8.33301 -5.66699 -16.833 -9 -25.5c-2 -6.66699 -4.16699 -13.334 -6.5 -20.001l-6.5 -19c-4.66699 -15.333 -8.66699 -30.5 -12 -45.5s-5.66602 -30.167 -6.99902 -45.5c29.333 -2 55.333 -6.5 78 -13.5s43.667 -16.167 63 -27.5v-57
v-56c-2 2 -4 3.83301 -6 5.5s-4 3.16699 -6 4.5c-20.667 16.667 -41.834 30.167 -63.501 40.5s-46.834 18.833 -75.501 25.5c-2 -20 -3.5 -40 -4.5 -60s-1.5 -39.667 -1.5 -59v-18.5c0 -6.33301 0.333008 -12.833 1 -19.5c0.666992 -37.333 3 -75 7 -113
s9.33301 -77 16 -117h-61.5h-59.5c-8 38 -14.333 78.167 -19 120.5s-7 85.833 -7 130.5c0 14 0.166992 28 0.5 42s1.16602 28 2.49902 42c0 6.66699 0.333008 13.667 1 21l2 21l-42 -26.5c-15.333 -9.66699 -32.666 -22.834 -51.999 -39.501
c1.33301 20.667 2 40.834 2 60.501v58.5c6 2 11.833 4.16699 17.5 6.5l16.5 6.5c0.666992 0 1.16699 0.166992 1.5 0.5s0.833008 0.5 1.5 0.5c10.667 4.66699 21.5 9 32.5 13s21.833 6.66699 32.5 8c6 24.667 12.5 47.334 19.5 68.001s15.5 41 25.5 61
c4 8.66699 8.5 17.167 13.5 25.5l15.5 25.5h24c8 0 16 0.333008 24 1h12.5h12.5h12.5h12.5v0z" />
    <glyph glyph-name="v" unicode="u" horiz-adv-x="543" 
d="M199 475c-0.666992 -6.66699 -1.50293 -13.501 -2.50293 -20.501s-2.16699 -13.833 -3.5 -20.5l-11.5 -87.5c-3.66699 -29 -5.5 -57.833 -5.5 -86.5v-4v-4v-4v-4c0 -10.667 1 -21.834 3 -33.501s4.33301 -23.5 7 -35.5c8.66699 -32 20.334 -61.167 35.001 -87.5
s30.334 -39.833 47.001 -40.5h0.5h0.5h0.5h0.5c28.667 0.666992 50 14.834 64 42.501s24.333 58.167 31 91.5c2.66699 12.667 5 25.5 7 38.5s3.66699 25.167 5 36.5c1.33301 6 2 12 2 18v17c0 15.333 -1 30.666 -3 45.999s-4.33301 30.333 -7 45
c-0.666992 2 -1.16699 4.16699 -1.5 6.5s-0.833008 4.83301 -1.5 7.5l-6 38c-2 12.667 -3.66699 25.667 -5 39h22c7.33301 0 14.333 0.333008 21 1h11.5h10.5c11.333 0 22.333 0.166992 33 0.5s21 0.5 31 0.5c6 -17.333 11.167 -34.666 15.5 -51.999
s7.83301 -34.666 10.5 -51.999c2 -17.333 3.66699 -34.666 5 -51.999s2 -34.666 2 -51.999c0 -44 -3 -87.667 -9 -131s-12.333 -85.666 -19 -126.999c-0.666992 -2.66699 -1.16699 -5 -1.5 -7s-0.833008 -4.33301 -1.5 -7c-2.66699 0 -8.16699 -0.166992 -16.5 -0.5
s-17.166 -0.5 -26.499 -0.5h-0.5h-1.5c-8.66699 0 -17.167 -0.166992 -25.5 -0.5s-14.166 -0.5 -17.499 -0.5v0v1c-0.666992 0 -1 0.166992 -1 0.5v0.5c0 3.33301 1 9 3 17l7 27c0 1.33301 0.166992 2.5 0.5 3.5s0.5 1.83301 0.5 2.5
c3.33301 10.667 6.16602 20.167 8.49902 28.5l3.5 12.5c-12 -24 -30.833 -43.167 -56.5 -57.5s-52.834 -23.5 -81.501 -27.5c-6 -0.666992 -11.833 -1.16699 -17.5 -1.5s-11.5 -0.5 -17.5 -0.5c-10.667 0 -21.167 0.666992 -31.5 2s-20.166 3.66602 -29.499 6.99902
c-36 13.333 -69.667 38 -101 74s-50.333 74.333 -57 115c0 1.33301 -0.166992 2.66602 -0.5 3.99902s-0.5 2.66602 -0.5 3.99902c-0.666992 6 -1.16699 12 -1.5 18s-0.5 11.667 -0.5 17c0 14 0.666992 28.167 2 42.5s3.33301 28.833 6 43.5c4 24 9 47.667 15 71
s12.333 46.333 19 69c0.666992 1.33301 1.16699 2.83301 1.5 4.5s0.833008 3.16699 1.5 4.5h66h63v0z" />
    <glyph glyph-name="w" unicode="v" horiz-adv-x="529" 
d="M168 467c5.33301 -61.333 13.667 -121.834 25 -181.501s37.333 -119.167 78 -178.5c46 59.333 74.5 119 85.5 179s16.5 120.333 16.5 181h22.5h22.5h46h44c-1.33301 -16.667 -3 -33.834 -5 -51.501s-4.33301 -35.167 -7 -52.5
c-13.333 -75.333 -37.666 -147.166 -72.999 -215.499s-86.333 -119.166 -153 -152.499c-58.667 30 -109.834 83.167 -153.501 159.5s-69.834 157.5 -78.501 243.5c-1.33301 8.66699 -2.16602 17.5 -2.49902 26.5s-0.5 17.833 -0.5 26.5v4v4v4v4h33h34h33h33v0z" />
    <glyph glyph-name="x" unicode="w" horiz-adv-x="631" 
d="M176 469c-4.66699 -20 -8.33008 -40.999 -10.9971 -62.999s-4 -44.333 -4 -67v-3.5v-3.5c0.666992 -40 5.5 -78.833 14.5 -116.5s23.5 -68.5 43.5 -92.5c20 16 37.667 38.667 53 68s27.666 60 36.999 92c1.33301 2.66699 2.33301 5.33398 3 8.00098l2 8
c2 -5.33301 3.83301 -10.833 5.5 -16.5s3.5 -11.167 5.5 -16.5c10 -27.333 22.833 -54 38.5 -80s34.5 -48.333 56.5 -67c18 29.333 32 62.5 42 99.5s15 75.833 15 116.5c0 14.667 -0.666992 29.334 -2 44.001s-3.33301 29.334 -6 44.001
c-1.33301 7.33301 -2.83301 14.666 -4.5 21.999s-3.5 14.666 -5.5 21.999c14 0.666992 27.833 1 41.5 1s27.167 -0.333008 40.5 -1h20.5h20.5c7.33301 -20 13.333 -40.5 18 -61.5s8 -42.167 10 -63.5c0 -5.33301 0.166992 -10.666 0.5 -15.999s0.5 -10.666 0.5 -15.999
c0 -63.333 -15.333 -123.333 -46 -180s-80.334 -100.334 -149.001 -131.001c-20 12 -37.5 26.5 -52.5 43.5s-29.5 35.167 -43.5 54.5c-1.33301 1.33301 -2.33301 2.66602 -3 3.99902s-1.66699 2.66602 -3 3.99902c-13.333 -20.667 -27.333 -40.5 -42 -59.5
s-31.667 -35.833 -51 -50.5c-64.667 31.333 -114.667 75.333 -150 132s-53 116 -53 178c0 28 3.5 55.667 10.5 83s17.833 53.666 32.5 78.999c10 0 19.667 0.166992 29 0.5s19 0.5 29 0.5c9.33301 0 18.666 0.166992 27.999 0.5s19 0.5 29 0.5v0z" />
    <glyph glyph-name="y" unicode="x" horiz-adv-x="553" 
d="M16 473c0 -0.666992 6.5 -1.00195 19.5 -1.00195h43.5h15c5.33301 0 10.333 0.333008 15 1h22.5h9.5v-0.5v-1.5v-1.5v-0.5c0 -10 1 -20.667 3 -32s5 -22.666 9 -33.999c9.33301 -26.667 23.833 -52.167 43.5 -76.5s44.5 -43.166 74.5 -56.499
c26 14.667 46.833 37 62.5 67s28.167 61.667 37.5 95c2.66699 7.33301 4.83398 14.666 6.50098 21.999s3.5 14.333 5.5 21h20.5h20.5h42h40c-10 -52.667 -27 -98.667 -51 -138s-58.333 -69.666 -103 -90.999c53.333 -23.333 94.833 -57.5 124.5 -102.5
s44.167 -93.833 43.5 -146.5h-35.5h-32.5h-26h-28c-1.33301 42.667 -11.166 83.167 -29.499 121.5s-50.166 71.166 -95.499 98.499c-36.667 -21.333 -67.167 -46.5 -91.5 -75.5s-36.5 -64.167 -36.5 -105.5c0 -6 0.333008 -12 1 -18l2 -18h-62h-63v4v4v4v4
c-0.666992 48 10.666 92.667 33.999 134s64.333 73.333 123 96c-2.66699 0.666992 -5.33398 1.5 -8.00098 2.5s-5.33398 1.83301 -8.00098 2.5c-30 12.667 -58.5 33.334 -85.5 62.001s-45.833 59 -56.5 91c-2.66699 8 -4.66699 15.833 -6 23.5s-2 15.167 -2 22.5
c0 4 0.166992 8 0.5 12s0.833008 7.66699 1.5 11v0z" />
    <glyph glyph-name="z" unicode="y" horiz-adv-x="553" 
d="M227 473c-12 -22.667 -22 -46.5059 -30 -71.5059s-14 -50.167 -18 -75.5l-2 -25.5c-0.666992 -8.33301 -1 -16.833 -1 -25.5c0 -43.333 8.33301 -85.166 25 -125.499s43.334 -75.166 80.001 -104.499c28.667 14.667 51.5 37.5 68.5 68.5s29.5 63.833 37.5 98.5
c2 8 3.66699 16 5 24l4 24c0 2 0.166992 3.83301 0.5 5.5s0.5 3.16699 0.5 4.5v4.5v5.5c0 16 -2 31.667 -6 47s-8.66699 31 -14 47c-2 3.33301 -3.66699 7 -5 11l-4 12c-4.66699 11.333 -9.16699 22.833 -13.5 34.5s-7.83301 23.5 -10.5 35.5h20h20
c3.33301 -0.666992 6.83301 -1 10.5 -1h10.5h30c10 0 20 0.333008 30 1c8 -12.667 15 -25.5 21 -38.5s11 -26.167 15 -39.5c9.33301 -26 15.666 -51.667 18.999 -77s5 -49.666 5 -72.999v-4v-4v-4v-4v-2.5v-2.5v-3v-3c0.666992 -104.667 -43.333 -199.5 -132 -284.5
s-191 -136.833 -307 -155.5c0 6 -0.5 11.667 -1.5 17s-1.83301 10.333 -2.5 15c-0.666992 3.33301 -1.33398 6.5 -2.00098 9.5s-1.33398 6.16699 -2.00098 9.5c1.33301 0.666992 2.5 1.33398 3.5 2.00098s2.16699 1.33398 3.5 2.00098c13.333 8 28 16.167 44 24.5
s32 17.5 48 27.5c24 14 47 30.5 69 49.5s40.333 41.833 55 68.5c-69.333 -1.33301 -130.166 18.834 -182.499 60.501s-82.166 94.167 -89.499 157.5c-0.666992 5.33301 -1.16699 10.5 -1.5 15.5s-0.5 9.83301 -0.5 14.5c0 39.333 6.66699 78 20 116s30.333 75.333 51 112
h64.5h64.5v0z" />
    <glyph glyph-name="braceleft" unicode="z" horiz-adv-x="518" 
d="M475 441c-61.333 -50.667 -117.668 -103.831 -169.001 -159.498s-88.333 -123.5 -111 -203.5c11.333 -2.66699 22.5 -4.83398 33.5 -6.50098s21.167 -2.5 30.5 -2.5c30.667 -0.666992 58 4.66602 82 15.999s47.667 24 71 38l4 2
c1.33301 0.666992 2.66602 1.66699 3.99902 3l26 15.5c8.66699 5 17.667 9.83301 27 14.5c0 -9.33301 0.166992 -20.333 0.5 -33s0.5 -25.334 0.5 -38.001v-1.5v-1.5c0 -13.333 0.166992 -26.333 0.5 -39s0.5 -23.667 0.5 -33c-34 -9.33301 -68 -16.166 -102 -20.499
s-68.667 -6.5 -104 -6.5c-39.333 -0.666992 -79.333 1.5 -120 6.5s-82 11.167 -124 18.5c20.667 81.333 54.167 152 100.5 212s96.833 117 151.5 171c-4.66699 2 -10.167 3.5 -16.5 4.5s-12.833 1.5 -19.5 1.5c-10.667 0 -21.667 -1 -33 -3s-23 -4.33301 -35 -7
c-11.333 -3.33301 -22.5 -6.83301 -33.5 -10.5s-21.5 -7.5 -31.5 -11.5c-14 -5.33301 -26.833 -10.5 -38.5 -15.5l-26.5 -11.5c0.666992 8 1 15.833 1 23.5s0.333008 15.167 1 22.5v3v3c0 8 0.166992 16.333 0.5 25s0.833008 18 1.5 28c33.333 8 66.833 14 100.5 18
s67.834 6 102.501 6c38 0 75.833 -2.33301 113.5 -7s74.834 -11.667 111.501 -21v0z" />
    <glyph glyph-name="bar" unicode="{" horiz-adv-x="361" 
d="M23 166l14.002 34.9951l16 -2c22.667 0 37.667 8 45 24s11.333 33.333 12 52c0.666992 5.33301 1 10.5 1 15.5v14.5v2v2v35v51c0 32 1.16699 55.333 3.5 70s7.16602 27.334 14.499 38.001l4.5 6.5c1.66699 2.33301 3.5 4.5 5.5 6.5c11.333 12.667 25 22.667 41 30
s33.333 11 52 11h26l23 -2c6 0 11.167 0.166992 15.5 0.5s7.83301 0.5 10.5 0.5s4.83398 0.166992 6.50098 0.5s3.5 0.5 5.5 0.5h2.5h2.5l-21 -32c-40.667 0 -67.5 -13.667 -80.5 -41s-20.5 -57.666 -22.5 -90.999c-0.666992 -9.33301 -1 -18.666 -1 -27.999v-27v-4v-4v-9
c0 -3.33301 0.333008 -6.66602 1 -9.99902v-10v-10v-3.5v-3.5c-0.666992 -22 -4.33398 -42.5 -11.001 -61.5s-22 -30.5 -46 -34.5c21.333 -3.33301 35.666 -14.166 42.999 -32.499s11.666 -37.833 12.999 -58.5c0 -3.33301 0.166992 -6.83301 0.5 -10.5
s0.5 -7.16699 0.5 -10.5v-11v-11c-0.666992 -3.33301 -1 -6.5 -1 -9.5v-9.5v-5.5v-5.5v-27c0 -9.33301 0.333008 -19 1 -29c2.66699 -30 10.334 -57.333 23.001 -82s38 -37 76 -37l19 1h4l-19 -32l-15.5 3.5c-4.33301 1 -8.5 1.5 -12.5 1.5l-23 -3h-12
c-44.667 0.666992 -77.667 14.667 -99 42s-32 62 -32 104v54v46v26c0 19.333 -2.83301 36.833 -8.5 52.5s-20.167 23.5 -43.5 23.5l-26 -2h-8v0z" />
    <glyph glyph-name="braceright" unicode="|" horiz-adv-x="158" 
d="M47 557h62v-698h-62v698v0z" />
    <glyph glyph-name="asciitilde" unicode="}" horiz-adv-x="395" 
d="M346 166l-3.99707 -0.00390625l-20 2c-21.333 0 -35 -7.33301 -41 -22s-9.33301 -31 -10 -49v-4v-4v-16v-16l2 -37v-57c0 -40.667 -10.667 -74.5 -32 -101.5s-53.333 -40.5 -96 -40.5l-12 -1l-26 2c-0.666992 0.666992 -1.16699 1 -1.5 1h-1.5
c-2.66699 0 -5.66699 -0.5 -9 -1.5s-7.66602 -1.83301 -12.999 -2.5l-21 31h5l20 -2c36.667 0.666992 61.5 13.334 74.5 38.001s20.5 52 22.5 82c0.666992 5.33301 1.16699 10.833 1.5 16.5s0.5 10.834 0.5 15.501v9.5v8.5c-0.666992 3.33301 -1 6.33301 -1 9v8v11v13
c-0.666992 4 -1 8.16699 -1 12.5v13.5v6v6c0.666992 20.667 4.66699 40 12 58s22.333 29 45 33c-24 4.66699 -39.333 16.834 -46 36.501s-10.334 40.5 -11.001 62.5v3.5v3.5v7.5v6.5v4c0 1.33301 0.333008 2.33301 1 3v11v10v14.5v14.5v15.5v15.5
c-2 32 -9.66699 61.5 -23 88.5s-40.333 40.5 -81 40.5l-21 32h4h3c1.33301 0 2.66602 -0.166992 3.99902 -0.5s2.66602 -0.5 3.99902 -0.5c3.33301 0 6.83301 -0.166992 10.5 -0.5s8.16699 -0.5 13.5 -0.5l29 2h23c47.333 0 79.166 -15.667 95.499 -47s24.833 -66 25.5 -104
v-4v-4v-2.5v-2.5v-3v-3v-43v-43v-9v-9c0.666992 -21.333 4.66699 -40.666 12 -57.999s24.333 -26 51 -26l27 2l-15 -35v0z" />
    <glyph glyph-name="bullet" unicode="~" horiz-adv-x="404" 
d="M314 557l17.9971 -17.998l-8 -6c-16.667 -17.333 -34.834 -33.166 -54.501 -47.499s-40.5 -21.5 -62.5 -21.5c-5.33301 0 -10.833 0.5 -16.5 1.5s-11.5 2.83301 -17.5 5.5c-2.66699 1.33301 -5.5 2.66602 -8.5 3.99902s-5.83301 3 -8.5 5
c-9.33301 5.33301 -18.166 9.33301 -26.499 12s-16.166 4 -23.499 4c-5.33301 0 -10.666 -0.666992 -15.999 -2s-10.333 -3 -15 -5c-5.33301 -2.66699 -10.666 -5.83398 -15.999 -9.50098s-10.666 -7.83398 -15.999 -12.501l-18 17l16.5 16.5l19.5 19.5
c8.66699 8.66699 18 16.667 28 24s20 13.333 30 18c4.66699 2 9.5 3.66699 14.5 5s9.83301 2 14.5 2c5.33301 0 10.5 -0.833008 15.5 -2.5s9.83301 -4.16699 14.5 -7.5l31 -20c7.33301 -4.66699 14.666 -8 21.999 -10s14.333 -3 21 -3s13 1 19 3s12 4.66699 18 8
c4.66699 2.66699 9 5.66699 13 9s8 7 12 11v0z" />
    <glyph glyph-name="exclamdown" unicode="&#xa1;" 
 />
    <glyph glyph-name="cent" unicode="&#xa2;" 
 />
    <glyph glyph-name="sterling" unicode="&#xa3;" 
 />
    <glyph glyph-name="currency" unicode="&#xa4;" 
 />
    <glyph glyph-name="yen" unicode="&#xa5;" 
 />
    <glyph glyph-name="brokenbar" unicode="&#xa6;" 
 />
    <glyph glyph-name="section" unicode="&#xa7;" 
 />
    <glyph glyph-name="dieresis" unicode="&#xa8;" 
 />
    <glyph glyph-name="copyright" unicode="&#xa9;" 
 />
    <glyph glyph-name="ordfeminine" unicode="&#xaa;" 
 />
    <glyph glyph-name="guillemotleft" unicode="&#xab;" 
 />
    <glyph glyph-name="logicalnot" unicode="&#xac;" 
 />
    <glyph glyph-name="uni00AD" unicode="&#xad;" 
 />
    <glyph glyph-name="registered" unicode="&#xae;" 
 />
    <glyph glyph-name="macron" unicode="&#xaf;" 
 />
    <glyph glyph-name="degree" unicode="&#xb0;" 
 />
    <glyph glyph-name="plusminus" unicode="&#xb1;" 
 />
    <glyph glyph-name="uni00B2" unicode="&#xb2;" 
 />
    <glyph glyph-name="uni00B3" unicode="&#xb3;" 
 />
    <glyph glyph-name="acute" unicode="&#xb4;" 
 />
    <glyph glyph-name="uni00B5" unicode="&#xb5;" 
 />
    <glyph glyph-name="paragraph" unicode="&#xb6;" 
 />
    <glyph glyph-name="periodcentered" unicode="&#xb7;" 
 />
    <glyph glyph-name="cedilla" unicode="&#xb8;" 
 />
    <glyph glyph-name="uni00B9" unicode="&#xb9;" 
 />
    <glyph glyph-name="ordmasculine" unicode="&#xba;" 
 />
    <glyph glyph-name="guillemotright" unicode="&#xbb;" 
 />
    <glyph glyph-name="onequarter" unicode="&#xbc;" 
 />
    <glyph glyph-name="onehalf" unicode="&#xbd;" 
 />
    <glyph glyph-name="threequarters" unicode="&#xbe;" 
 />
    <glyph glyph-name="questiondown" unicode="&#xbf;" 
 />
    <glyph glyph-name="Agrave" unicode="&#xc0;" 
 />
    <glyph glyph-name="Aacute" unicode="&#xc1;" 
 />
    <glyph glyph-name="Acircumflex" unicode="&#xc2;" 
 />
    <glyph glyph-name="Atilde" unicode="&#xc3;" 
 />
    <glyph glyph-name="Adieresis" unicode="&#xc4;" 
 />
    <glyph glyph-name="Aring" unicode="&#xc5;" 
 />
    <glyph glyph-name="AE" unicode="&#xc6;" 
 />
    <glyph glyph-name="Ccedilla" unicode="&#xc7;" 
 />
    <glyph glyph-name="Egrave" unicode="&#xc8;" 
 />
    <glyph glyph-name="Eacute" unicode="&#xc9;" 
 />
    <glyph glyph-name="Ecircumflex" unicode="&#xca;" 
 />
    <glyph glyph-name="Edieresis" unicode="&#xcb;" 
 />
    <glyph glyph-name="Igrave" unicode="&#xcc;" 
 />
    <glyph glyph-name="Iacute" unicode="&#xcd;" 
 />
    <glyph glyph-name="Icircumflex" unicode="&#xce;" 
 />
    <glyph glyph-name="Idieresis" unicode="&#xcf;" 
 />
    <glyph glyph-name="Eth" unicode="&#xd0;" 
 />
    <glyph glyph-name="Ntilde" unicode="&#xd1;" 
 />
    <glyph glyph-name="Ograve" unicode="&#xd2;" 
 />
    <glyph glyph-name="Oacute" unicode="&#xd3;" 
 />
    <glyph glyph-name="Ocircumflex" unicode="&#xd4;" 
 />
    <glyph glyph-name="Otilde" unicode="&#xd5;" 
 />
    <glyph glyph-name="Odieresis" unicode="&#xd6;" 
 />
    <glyph glyph-name="multiply" unicode="&#xd7;" 
 />
    <glyph glyph-name="Oslash" unicode="&#xd8;" 
 />
    <glyph glyph-name="Ugrave" unicode="&#xd9;" 
 />
    <glyph glyph-name="Uacute" unicode="&#xda;" 
 />
    <glyph glyph-name="Ucircumflex" unicode="&#xdb;" 
 />
    <glyph glyph-name="Udieresis" unicode="&#xdc;" 
 />
    <glyph glyph-name="Yacute" unicode="&#xdd;" 
 />
    <glyph glyph-name="Thorn" unicode="&#xde;" 
 />
    <glyph glyph-name="germandbls" unicode="&#xdf;" 
 />
    <glyph glyph-name="agrave" unicode="&#xe0;" 
 />
    <glyph glyph-name="aacute" unicode="&#xe1;" 
 />
    <glyph glyph-name="acircumflex" unicode="&#xe2;" 
 />
    <glyph glyph-name="atilde" unicode="&#xe3;" 
 />
    <glyph glyph-name="adieresis" unicode="&#xe4;" 
 />
    <glyph glyph-name="aring" unicode="&#xe5;" 
 />
    <glyph glyph-name="ae" unicode="&#xe6;" 
 />
    <glyph glyph-name="ccedilla" unicode="&#xe7;" 
 />
    <glyph glyph-name="egrave" unicode="&#xe8;" 
 />
    <glyph glyph-name="eacute" unicode="&#xe9;" 
 />
    <glyph glyph-name="ecircumflex" unicode="&#xea;" 
 />
    <glyph glyph-name="edieresis" unicode="&#xeb;" 
 />
    <glyph glyph-name="igrave" unicode="&#xec;" 
 />
    <glyph glyph-name="iacute" unicode="&#xed;" 
 />
    <glyph glyph-name="icircumflex" unicode="&#xee;" 
 />
    <glyph glyph-name="idieresis" unicode="&#xef;" 
 />
    <glyph glyph-name="eth" unicode="&#xf0;" 
 />
    <glyph glyph-name="ntilde" unicode="&#xf1;" 
 />
    <glyph glyph-name="ograve" unicode="&#xf2;" 
 />
    <glyph glyph-name="oacute" unicode="&#xf3;" 
 />
    <glyph glyph-name="ocircumflex" unicode="&#xf4;" 
 />
    <glyph glyph-name="otilde" unicode="&#xf5;" 
 />
    <glyph glyph-name="odieresis" unicode="&#xf6;" 
 />
    <glyph glyph-name="divide" unicode="&#xf7;" 
 />
    <glyph glyph-name="oslash" unicode="&#xf8;" 
 />
    <glyph glyph-name="ugrave" unicode="&#xf9;" 
 />
    <glyph glyph-name="uacute" unicode="&#xfa;" 
 />
    <glyph glyph-name="ucircumflex" unicode="&#xfb;" 
 />
    <glyph glyph-name="udieresis" unicode="&#xfc;" 
 />
    <glyph glyph-name="yacute" unicode="&#xfd;" 
 />
    <glyph glyph-name="thorn" unicode="&#xfe;" 
 />
    <glyph glyph-name="ydieresis" unicode="&#xff;" 
 />
    <glyph glyph-name="Abreve" unicode="&#x102;" 
 />
    <glyph glyph-name="abreve" unicode="&#x103;" 
 />
    <glyph glyph-name="Aogonek" unicode="&#x104;" 
 />
    <glyph glyph-name="aogonek" unicode="&#x105;" 
 />
    <glyph glyph-name="Cacute" unicode="&#x106;" 
 />
    <glyph glyph-name="cacute" unicode="&#x107;" 
 />
    <glyph glyph-name="Ccaron" unicode="&#x10c;" 
 />
    <glyph glyph-name="ccaron" unicode="&#x10d;" 
 />
    <glyph glyph-name="Dcaron" unicode="&#x10e;" 
 />
    <glyph glyph-name="dcaron" unicode="&#x10f;" 
 />
    <glyph glyph-name="Dcroat" unicode="&#x110;" 
 />
    <glyph glyph-name="dcroat" unicode="&#x111;" 
 />
    <glyph glyph-name="Eogonek" unicode="&#x118;" 
 />
    <glyph glyph-name="eogonek" unicode="&#x119;" 
 />
    <glyph glyph-name="Ecaron" unicode="&#x11a;" 
 />
    <glyph glyph-name="ecaron" unicode="&#x11b;" 
 />
    <glyph glyph-name="Gbreve" unicode="&#x11e;" 
 />
    <glyph glyph-name="gbreve" unicode="&#x11f;" 
 />
    <glyph glyph-name="Idotaccent" unicode="&#x130;" 
 />
    <glyph glyph-name="dotlessi" unicode="&#x131;" 
 />
    <glyph glyph-name="Lacute" unicode="&#x139;" 
 />
    <glyph glyph-name="lacute" unicode="&#x13a;" 
 />
    <glyph glyph-name="Lcaron" unicode="&#x13d;" 
 />
    <glyph glyph-name="lcaron" unicode="&#x13e;" 
 />
    <glyph glyph-name="Ldot" unicode="&#x13f;" 
 />
    <glyph glyph-name="ldot" unicode="&#x140;" 
 />
    <glyph glyph-name="Lslash" unicode="&#x141;" 
 />
    <glyph glyph-name="lslash" unicode="&#x142;" 
 />
    <glyph glyph-name="Nacute" unicode="&#x143;" 
 />
    <glyph glyph-name="nacute" unicode="&#x144;" 
 />
    <glyph glyph-name="Ncaron" unicode="&#x147;" 
 />
    <glyph glyph-name="ncaron" unicode="&#x148;" 
 />
    <glyph glyph-name="Ohungarumlaut" unicode="&#x150;" 
 />
    <glyph glyph-name="ohungarumlaut" unicode="&#x151;" 
 />
    <glyph glyph-name="OE" unicode="&#x152;" 
 />
    <glyph glyph-name="oe" unicode="&#x153;" 
 />
    <glyph glyph-name="Racute" unicode="&#x154;" 
 />
    <glyph glyph-name="racute" unicode="&#x155;" 
 />
    <glyph glyph-name="Rcaron" unicode="&#x158;" 
 />
    <glyph glyph-name="rcaron" unicode="&#x159;" 
 />
    <glyph glyph-name="Sacute" unicode="&#x15a;" 
 />
    <glyph glyph-name="sacute" unicode="&#x15b;" 
 />
    <glyph glyph-name="Scedilla" unicode="&#x15e;" 
 />
    <glyph glyph-name="scedilla" unicode="&#x15f;" 
 />
    <glyph glyph-name="Scaron" unicode="&#x160;" 
 />
    <glyph glyph-name="scaron" unicode="&#x161;" 
 />
    <glyph glyph-name="Tcommaaccent" unicode="&#x162;" 
 />
    <glyph glyph-name="tcommaaccent" unicode="&#x163;" 
 />
    <glyph glyph-name="Tcaron" unicode="&#x164;" 
 />
    <glyph glyph-name="tcaron" unicode="&#x165;" 
 />
    <glyph glyph-name="Uring" unicode="&#x16e;" 
 />
    <glyph glyph-name="uring" unicode="&#x16f;" 
 />
    <glyph glyph-name="Uhungarumlaut" unicode="&#x170;" 
 />
    <glyph glyph-name="uhungarumlaut" unicode="&#x171;" 
 />
    <glyph glyph-name="Ydieresis" unicode="&#x178;" 
 />
    <glyph glyph-name="Zacute" unicode="&#x179;" 
 />
    <glyph glyph-name="zacute" unicode="&#x17a;" 
 />
    <glyph glyph-name="Zdotaccent" unicode="&#x17b;" 
 />
    <glyph glyph-name="zdotaccent" unicode="&#x17c;" 
 />
    <glyph glyph-name="Zcaron" unicode="&#x17d;" 
 />
    <glyph glyph-name="zcaron" unicode="&#x17e;" 
 />
    <glyph glyph-name="florin" unicode="&#x192;" 
 />
    <glyph glyph-name="uni02BA" unicode="&#x2ba;" 
 />
    <glyph glyph-name="circumflex" unicode="&#x2c6;" 
 />
    <glyph glyph-name="caron" unicode="&#x2c7;" 
 />
    <glyph glyph-name="uni02C9" unicode="&#x2c9;" 
 />
    <glyph glyph-name="breve" unicode="&#x2d8;" 
 />
    <glyph glyph-name="dotaccent" unicode="&#x2d9;" 
 />
    <glyph glyph-name="ring" unicode="&#x2da;" 
 />
    <glyph glyph-name="ogonek" unicode="&#x2db;" 
 />
    <glyph glyph-name="tilde" unicode="&#x2dc;" 
 />
    <glyph glyph-name="Gamma" unicode="&#x393;" 
 />
    <glyph glyph-name="Theta" unicode="&#x398;" 
 />
    <glyph glyph-name="Sigma" unicode="&#x3a3;" 
 />
    <glyph glyph-name="Phi" unicode="&#x3a6;" 
 />
    <glyph glyph-name="Omega" unicode="&#x3a9;" 
 />
    <glyph glyph-name="alpha" unicode="&#x3b1;" 
 />
    <glyph glyph-name="delta" unicode="&#x3b4;" 
 />
    <glyph glyph-name="epsilon" unicode="&#x3b5;" 
 />
    <glyph glyph-name="pi" unicode="&#x3c0;" 
 />
    <glyph glyph-name="sigma" unicode="&#x3c3;" 
 />
    <glyph glyph-name="tau" unicode="&#x3c4;" 
 />
    <glyph glyph-name="phi" unicode="&#x3c6;" 
 />
    <glyph glyph-name="endash" unicode="&#x2013;" 
 />
    <glyph glyph-name="emdash" unicode="&#x2014;" 
 />
    <glyph glyph-name="underscoredbl" unicode="&#x2017;" 
 />
    <glyph glyph-name="quoteleft" unicode="&#x2018;" 
 />
    <glyph glyph-name="quoteright" unicode="&#x2019;" 
 />
    <glyph glyph-name="quotesinglbase" unicode="&#x201a;" 
 />
    <glyph glyph-name="quotedblleft" unicode="&#x201c;" 
 />
    <glyph glyph-name="quotedblright" unicode="&#x201d;" 
 />
    <glyph glyph-name="quotedblbase" unicode="&#x201e;" 
 />
    <glyph glyph-name="dagger" unicode="&#x2020;" 
 />
    <glyph glyph-name="daggerdbl" unicode="&#x2021;" 
 />
    <glyph glyph-name="glyph262" unicode="&#x2022;" 
 />
    <glyph glyph-name="ellipsis" unicode="&#x2026;" 
 />
    <glyph glyph-name="perthousand" unicode="&#x2030;" 
 />
    <glyph glyph-name="guilsinglleft" unicode="&#x2039;" 
 />
    <glyph glyph-name="guilsinglright" unicode="&#x203a;" 
 />
    <glyph glyph-name="exclamdbl" unicode="&#x203c;" 
 />
    <glyph glyph-name="uni207F" unicode="&#x207f;" 
 />
    <glyph glyph-name="franc" unicode="&#x20a3;" 
 />
    <glyph glyph-name="peseta" unicode="&#x20a7;" 
 />
    <glyph glyph-name="trademark" unicode="&#x2122;" 
 />
    <glyph glyph-name="arrowleft" unicode="&#x2190;" 
 />
    <glyph glyph-name="arrowup" unicode="&#x2191;" 
 />
    <glyph glyph-name="arrowright" unicode="&#x2192;" 
 />
    <glyph glyph-name="arrowdown" unicode="&#x2193;" 
 />
    <glyph glyph-name="arrowboth" unicode="&#x2194;" 
 />
    <glyph glyph-name="arrowupdn" unicode="&#x2195;" 
 />
    <glyph glyph-name="arrowupdnbse" unicode="&#x21a8;" 
 />
    <glyph glyph-name="partialdiff" unicode="&#x2202;" 
 />
    <glyph glyph-name="uni2206" unicode="&#x2206;" 
 />
    <glyph glyph-name="product" unicode="&#x220f;" 
 />
    <glyph glyph-name="minus" unicode="&#x2212;" 
 />
    <glyph glyph-name="uni2215" unicode="&#x2215;" 
 />
    <glyph glyph-name="uni2219" unicode="&#x2219;" 
 />
    <glyph glyph-name="radical" unicode="&#x221a;" 
 />
    <glyph glyph-name="infinity" unicode="&#x221e;" 
 />
    <glyph glyph-name="orthogonal" unicode="&#x221f;" 
 />
    <glyph glyph-name="intersection" unicode="&#x2229;" 
 />
    <glyph glyph-name="integral" unicode="&#x222b;" 
 />
    <glyph glyph-name="approxequal" unicode="&#x2248;" 
 />
    <glyph glyph-name="notequal" unicode="&#x2260;" 
 />
    <glyph glyph-name="equivalence" unicode="&#x2261;" 
 />
    <glyph glyph-name="lessequal" unicode="&#x2264;" 
 />
    <glyph glyph-name="greaterequal" unicode="&#x2265;" 
 />
    <glyph glyph-name="house" unicode="&#x2302;" 
 />
    <glyph glyph-name="revlogicalnot" unicode="&#x2310;" 
 />
    <glyph glyph-name="integraltp" unicode="&#x2320;" 
 />
    <glyph glyph-name="integralbt" unicode="&#x2321;" 
 />
    <glyph glyph-name="SF100000" unicode="&#x2500;" 
 />
    <glyph glyph-name="SF110000" unicode="&#x2502;" 
 />
    <glyph glyph-name="SF010000" unicode="&#x250c;" 
 />
    <glyph glyph-name="SF030000" unicode="&#x2510;" 
 />
    <glyph glyph-name="SF020000" unicode="&#x2514;" 
 />
    <glyph glyph-name="SF040000" unicode="&#x2518;" 
 />
    <glyph glyph-name="SF080000" unicode="&#x251c;" 
 />
    <glyph glyph-name="SF090000" unicode="&#x2524;" 
 />
    <glyph glyph-name="SF060000" unicode="&#x252c;" 
 />
    <glyph glyph-name="SF070000" unicode="&#x2534;" 
 />
    <glyph glyph-name="SF050000" unicode="&#x253c;" 
 />
    <glyph glyph-name="SF430000" unicode="&#x2550;" 
 />
    <glyph glyph-name="SF240000" unicode="&#x2551;" 
 />
    <glyph glyph-name="SF510000" unicode="&#x2552;" 
 />
    <glyph glyph-name="SF520000" unicode="&#x2553;" 
 />
    <glyph glyph-name="SF390000" unicode="&#x2554;" 
 />
    <glyph glyph-name="SF220000" unicode="&#x2555;" 
 />
    <glyph glyph-name="SF210000" unicode="&#x2556;" 
 />
    <glyph glyph-name="SF250000" unicode="&#x2557;" 
 />
    <glyph glyph-name="SF500000" unicode="&#x2558;" 
 />
    <glyph glyph-name="SF490000" unicode="&#x2559;" 
 />
    <glyph glyph-name="SF380000" unicode="&#x255a;" 
 />
    <glyph glyph-name="SF280000" unicode="&#x255b;" 
 />
    <glyph glyph-name="SF270000" unicode="&#x255c;" 
 />
    <glyph glyph-name="SF260000" unicode="&#x255d;" 
 />
    <glyph glyph-name="SF360000" unicode="&#x255e;" 
 />
    <glyph glyph-name="SF370000" unicode="&#x255f;" 
 />
    <glyph glyph-name="SF420000" unicode="&#x2560;" 
 />
    <glyph glyph-name="SF190000" unicode="&#x2561;" 
 />
    <glyph glyph-name="SF200000" unicode="&#x2562;" 
 />
    <glyph glyph-name="SF230000" unicode="&#x2563;" 
 />
    <glyph glyph-name="SF470000" unicode="&#x2564;" 
 />
    <glyph glyph-name="SF480000" unicode="&#x2565;" 
 />
    <glyph glyph-name="SF410000" unicode="&#x2566;" 
 />
    <glyph glyph-name="SF450000" unicode="&#x2567;" 
 />
    <glyph glyph-name="SF460000" unicode="&#x2568;" 
 />
    <glyph glyph-name="SF400000" unicode="&#x2569;" 
 />
    <glyph glyph-name="SF540000" unicode="&#x256a;" 
 />
    <glyph glyph-name="SF530000" unicode="&#x256b;" 
 />
    <glyph glyph-name="SF440000" unicode="&#x256c;" 
 />
    <glyph glyph-name="upblock" unicode="&#x2580;" 
 />
    <glyph glyph-name="dnblock" unicode="&#x2584;" 
 />
    <glyph glyph-name="block" unicode="&#x2588;" 
 />
    <glyph glyph-name="lfblock" unicode="&#x258c;" 
 />
    <glyph glyph-name="rtblock" unicode="&#x2590;" 
 />
    <glyph glyph-name="ltshade" unicode="&#x2591;" 
 />
    <glyph glyph-name="shade" unicode="&#x2592;" 
 />
    <glyph glyph-name="dkshade" unicode="&#x2593;" 
 />
    <glyph glyph-name="filledbox" unicode="&#x25a0;" 
 />
    <glyph glyph-name="filledrect" unicode="&#x25ac;" 
 />
    <glyph glyph-name="triagup" unicode="&#x25b2;" 
 />
    <glyph glyph-name="triagrt" unicode="&#x25ba;" 
 />
    <glyph glyph-name="triagdn" unicode="&#x25bc;" 
 />
    <glyph glyph-name="triaglf" unicode="&#x25c4;" 
 />
    <glyph glyph-name="lozenge" unicode="&#x25ca;" 
 />
    <glyph glyph-name="circle" unicode="&#x25cb;" 
 />
    <glyph glyph-name="invbullet" unicode="&#x25d8;" 
 />
    <glyph glyph-name="invcircle" unicode="&#x25d9;" 
 />
    <glyph glyph-name="smileface" unicode="&#x263a;" 
 />
    <glyph glyph-name="invsmileface" unicode="&#x263b;" 
 />
    <glyph glyph-name="sun" unicode="&#x263c;" 
 />
    <glyph glyph-name="female" unicode="&#x2640;" 
 />
    <glyph glyph-name="male" unicode="&#x2642;" 
 />
    <glyph glyph-name="spade" unicode="&#x2660;" 
 />
    <glyph glyph-name="club" unicode="&#x2663;" 
 />
    <glyph glyph-name="heart" unicode="&#x2665;" 
 />
    <glyph glyph-name="diamond" unicode="&#x2666;" 
 />
    <glyph glyph-name="musicalnote" unicode="&#x266a;" 
 />
    <glyph glyph-name="musicalnotedbl" unicode="&#x266b;" 
 />
    <glyph glyph-name="uniF000" unicode="&#xf000;" 
 />
    <glyph glyph-name="uniF001" unicode="&#xf001;" 
 />
    <glyph glyph-name="uniF002" unicode="&#xf002;" 
 />
    <glyph glyph-name="glyph1" 
 />
    <glyph glyph-name="space" horiz-adv-x="133" 
 />
    <glyph glyph-name="glyph131" 
 />
    <glyph glyph-name="glyph135" horiz-adv-x="500" 
 />
    <glyph glyph-name="glyph177" 
 />
    </font>
</defs>
</svg>
